<?xml version="1.0" encoding="UTF-8"?>
<svg id="Layer_12" data-name="Layer 12" xmlns="http://www.w3.org/2000/svg" viewBox="0 0 711.92 37.26">
  <defs>
    <style>
      .cls-1 {
        letter-spacing: 0em;
      }

      .cls-2 {
        letter-spacing: 0em;
      }

      .cls-3 {
        letter-spacing: 0em;
      }

      .cls-4, .cls-5 {
        fill: #0e539f;
      }

      .cls-6 {
        fill: #e92031;
      }

      .cls-7 {
        fill: #265ea7;
      }

      .cls-8 {
        fill: #372f80;
      }

      .cls-9 {
        letter-spacing: -.01em;
      }

      .cls-10 {
        fill: #c0bcbd;
      }

      .cls-11 {
        fill: #2b9ad3;
      }

      .cls-12 {
        fill: #01294d;
      }

      .cls-13 {
        letter-spacing: .01em;
      }

      .cls-14 {
        fill: #002953;
      }

      .cls-15 {
        letter-spacing: -.01em;
      }

      .cls-16 {
        letter-spacing: -.01em;
      }

      .cls-17 {
        letter-spacing: 0em;
      }

      .cls-18 {
        letter-spacing: 0em;
      }

      .cls-19 {
        letter-spacing: -.01em;
      }

      .cls-20 {
        fill: #74be52;
      }

      .cls-21 {
        fill: #4e5d84;
      }

      .cls-22 {
        letter-spacing: -.02em;
      }

      .cls-23 {
        fill: #163150;
      }

      .cls-24, .cls-25 {
        fill: #0c4977;
      }

      .cls-5 {
        font-family: MyriadPro-Semibold, 'Myriad Pro';
        font-size: 5.79px;
        font-weight: 600;
      }

      .cls-26 {
        letter-spacing: 0em;
      }

      .cls-25 {
        fill-rule: evenodd;
      }

      .cls-27 {
        fill: #b02326;
      }

      .cls-28 {
        fill: #01a7a7;
      }

      .cls-29 {
        fill: #4a5c84;
      }

      .cls-30 {
        letter-spacing: 0em;
      }

      .cls-31 {
        letter-spacing: 0em;
      }

      .cls-32 {
        fill: #d71f2a;
      }

      .cls-33 {
        fill: #a1bbdd;
      }

      .cls-34 {
        fill: #234d96;
      }
    </style>
  </defs>
  <g>
    <polygon class="cls-32" points="223.74 12.32 214.13 12.32 214.13 4.37 212.51 4.37 212.51 22.75 214.13 22.75 214.13 13.73 223.74 13.73 223.74 22.75 225.37 22.75 225.37 4.37 223.74 4.37 223.74 12.32"/>
    <path class="cls-32" d="M234.54,9.27c-3.01,0-6.24,2.19-6.24,6.99,0,3.99,2.49,6.78,6.06,6.78,3.05,0,6.33-2.2,6.33-7.02,0-4.04-2.47-6.75-6.14-6.75M234.43,21.63c-2.57,0-4.51-2.34-4.51-5.45,0-2.74,1.42-5.5,4.59-5.5,3.33,0,4.54,3.24,4.54,5.42,0,3.15-1.98,5.53-4.62,5.53"/>
    <path class="cls-32" d="M257.28,9.27c-1.3,0-2.22.32-3.16,1.11-.5.42-.91.92-1.21,1.5-.68-1.62-2.08-2.61-3.74-2.61-1.75,0-3.09.74-4.07,2.25l-.07-1.95h-1.56l.02.18c.08.97.11,1.83.11,3.06v9.94h1.63v-8.09c0-.38.07-.82.18-1.18.43-1.33,1.67-2.77,3.4-2.77,1.86,0,3.01,1.47,3.01,3.84v8.2h1.63v-8.41c0-.43.1-.83.2-1.2.45-1.21,1.62-2.43,3.21-2.43,2.05,0,3.17,1.58,3.17,4.43v7.61h1.63v-7.74c0-5.46-3.64-5.74-4.37-5.74"/>
    <path class="cls-32" d="M270.39,9.27c-3.56,0-5.95,2.86-5.95,7.13,0,3.96,2.48,6.62,6.16,6.62,2.34,0,3.66-.59,4.12-.85l.12-.07-.42-1.31-.18.09c-.76.37-1.71.71-3.49.71-2.95,0-4.67-1.96-4.72-5.39h9.44l.03-.13c.06-.26.06-.46.06-.81,0-.61-.15-5.98-5.17-5.98M266.12,14.84c.3-1.96,1.53-4.15,4.11-4.15,1.05,0,1.89.32,2.51.95.98,1,1.14,2.47,1.15,3.21h-7.77Z"/>
    <path class="cls-34" d="M282.54,4.24c-1.3,0-2.62.12-3.91.35l-.14.02v18.14h1.63v-7.66c.57.13,1.21.16,2.02.16,2.33,0,4.26-.73,5.43-2.06.88-.96,1.3-2.18,1.3-3.73s-.5-2.77-1.44-3.66c-1.06-1.03-2.75-1.57-4.88-1.57M282.25,13.85c-.96,0-1.63-.07-2.13-.22v-7.79c.34-.06,1.13-.18,2.37-.18,3.02,0,4.75,1.44,4.75,3.95,0,2.74-1.77,4.24-4.99,4.24"/>
    <path class="cls-34" d="M296.35,9.27c-1.49,0-2.83.94-3.56,2.43l-.04-2.14h-1.53v.18c.08,1.12.12,2.38.12,3.84v9.16h1.63v-7.26c0-.48.03-.87.1-1.2.35-2.09,1.61-3.44,3.2-3.44.24,0,.41,0,.57.05l.22.06v-1.6l-.14-.02c-.17-.03-.36-.05-.56-.05"/>
    <path class="cls-34" d="M304.14,9.27c-3.01,0-6.24,2.19-6.24,6.99,0,3.99,2.49,6.78,6.06,6.78,3.05,0,6.33-2.2,6.33-7.02,0-4.04-2.47-6.75-6.14-6.75M304.03,21.63c-2.57,0-4.51-2.34-4.51-5.45,0-2.74,1.42-5.5,4.59-5.5,3.33,0,4.54,3.24,4.54,5.42,0,3.15-1.98,5.53-4.62,5.53"/>
    <path class="cls-10" d="M215.08,28.07c.42,0,.8.09,1.13.28l.16.09.31-.72-.11-.08c-.24-.17-.82-.35-1.45-.35-1.66,0-2.82,1.2-2.82,2.92s1.08,2.8,2.64,2.8c.56,0,1.11-.12,1.59-.35l.14-.06-.25-.73-.17.08c-.23.11-.62.28-1.21.28-1.12,0-1.87-.83-1.87-2.06,0-1.04.59-2.09,1.92-2.09"/>
    <path class="cls-10" d="M219.91,27.29c-1.3,0-2.61,1-2.61,2.91,0,1.63,1.06,2.82,2.53,2.82,1.27,0,2.64-.91,2.64-2.92,0-1.65-1.05-2.81-2.56-2.81M219.86,32.25c-.97,0-1.71-.9-1.71-2.08,0-1.05.54-2.1,1.74-2.1s1.72,1.24,1.72,2.07c0,1.21-.75,2.11-1.75,2.11"/>
    <path class="cls-10" d="M226.09,27.29c-.65,0-1.24.27-1.64.72l-.02-.6h-.83v.18c.04.39.06.73.06,1.22v4.09h.86v-3.36c0-.15.03-.31.06-.41.19-.62.76-1.06,1.38-1.06,1.09,0,1.26,1.01,1.26,1.61v3.22h.86v-3.26c0-1.74-1.06-2.35-1.97-2.35"/>
    <path class="cls-10" d="M232.05,27.29c-.65,0-1.24.27-1.64.72l-.02-.6h-.83v.18c.04.39.06.73.06,1.22v4.09h.86v-3.36c0-.12.02-.27.06-.41.19-.62.76-1.06,1.38-1.06,1.09,0,1.26,1.01,1.26,1.61v3.22h.86v-3.26c0-1.74-1.06-2.35-1.97-2.35"/>
    <path class="cls-10" d="M237.65,27.29c-1.47,0-2.49,1.22-2.49,2.96,0,1.65,1.04,2.76,2.57,2.76.96,0,1.51-.25,1.7-.35l.12-.07-.23-.72-.18.09c-.29.14-.66.27-1.35.27-1.09,0-1.74-.71-1.79-1.95h3.76l.03-.13c.03-.11.03-.2.03-.35,0-.93-.46-2.5-2.18-2.5M237.58,28.06c.39,0,.71.12.93.35.33.33.41.83.43,1.11h-2.89c.14-.71.61-1.46,1.53-1.46"/>
    <path class="cls-10" d="M243.35,28.07c.42,0,.8.09,1.13.28l.16.09.31-.72-.11-.08c-.24-.17-.82-.35-1.45-.35-1.66,0-2.82,1.2-2.82,2.92s1.08,2.8,2.64,2.8c.56,0,1.11-.12,1.59-.35l.14-.06-.25-.73-.17.08c-.23.11-.62.28-1.21.28-1.12,0-1.87-.83-1.87-2.06,0-1.04.59-2.09,1.92-2.09"/>
    <path class="cls-10" d="M247.17,26.2l-.86.32v.89h-.87v.76h.87v3.08c0,.63.12,1.07.36,1.34.22.28.57.43,1.02.43.3,0,.57-.05.79-.14l.12-.05-.12-.71-.19.06c-.09.03-.26.07-.54.07s-.58-.1-.58-.89v-3.18h1.47v-.76h-1.47v-1.21Z"/>
    <path class="cls-10" d="M257.48,30.45c-.13.4-.24.74-.33,1.06-.1-.34-.21-.69-.34-1.07l-1.03-3.02h-.73l-1.07,3.04c-.12.35-.24.72-.35,1.06-.07-.27-.15-.55-.24-.85l-.96-3.25h-.88l1.69,5.49h.7l1.06-2.97c.17-.46.3-.85.41-1.21.11.38.24.77.39,1.2l1.02,2.98h.69l1.83-5.49h-.89l-.95,3.04Z"/>
    <path class="cls-10" d="M260.61,25.49c-.32,0-.59.28-.59.62s.25.61.57.61c.34,0,.6-.26.6-.61s-.25-.62-.58-.62"/>
    <rect class="cls-10" x="260.18" y="27.41" width=".86" height="5.49"/>
    <path class="cls-10" d="M263.69,26.2l-.86.32v.89h-.87v.76h.87v3.08c0,.63.12,1.07.36,1.34.22.28.57.43,1.02.43.3,0,.57-.05.79-.14l.12-.05-.12-.71-.19.06c-.09.03-.26.07-.54.07s-.58-.1-.58-.89v-3.18h1.47v-.76h-1.47v-1.21Z"/>
    <path class="cls-10" d="M268.62,27.29c-.41,0-.8.11-1.13.32-.17.1-.33.23-.46.38v-3.05h-.86v7.96h.86v-3.31c0-.19,0-.32.05-.46.22-.61.79-1.04,1.39-1.04,1.08,0,1.25,1,1.25,1.6v3.22h.86v-3.27c0-2.27-1.76-2.34-1.96-2.34"/>
    <path class="cls-10" d="M275.75,26.2l-.86.32v.89h-.87v.76h.87v3.08c0,.63.12,1.07.36,1.34.22.28.57.43,1.02.43.3,0,.57-.05.79-.14l.12-.05-.12-.71-.19.06c-.09.03-.26.07-.54.07s-.58-.1-.58-.89v-3.18h1.47v-.76h-1.47v-1.21Z"/>
    <path class="cls-10" d="M280.68,27.29c-.41,0-.8.11-1.13.32-.17.1-.33.23-.46.38v-3.05h-.86v7.96h.86v-3.31c0-.19,0-.32.05-.46.22-.61.79-1.04,1.39-1.04,1.08,0,1.25,1,1.25,1.6v3.22h.86v-3.27c0-2.27-1.76-2.34-1.96-2.34"/>
    <path class="cls-10" d="M286.26,27.29c-1.47,0-2.49,1.22-2.49,2.96,0,1.65,1.04,2.76,2.57,2.76.96,0,1.51-.25,1.7-.35l.12-.07-.23-.72-.18.09c-.29.14-.66.27-1.35.27-1.09,0-1.74-.71-1.79-1.95h3.76l.03-.13c.03-.11.03-.2.03-.35,0-.93-.46-2.5-2.18-2.5M286.2,28.06c.39,0,.71.12.93.35.33.33.41.83.43,1.11h-2.89c.14-.71.61-1.46,1.53-1.46"/>
    <path class="cls-10" d="M294.76,27.29c-.72,0-1.31.26-1.73.73v-3.08h-.86v6.59c0,.46-.01.88-.04,1.19l-.02.19h.81l.03-.62c.42.5.99.74,1.72.74,1.23,0,2.47-1,2.47-2.92,0-1.65-.98-2.81-2.38-2.81M294.64,28.06c1.13,0,1.64,1.06,1.64,2.05,0,1.32-.64,2.14-1.68,2.14-.73,0-1.33-.46-1.53-1.17-.02-.1-.04-.21-.04-.33v-1.03c0-.16.03-.28.06-.41.21-.75.84-1.25,1.55-1.25"/>
    <path class="cls-10" d="M300.38,27.29c-1.47,0-2.49,1.22-2.49,2.96,0,1.65,1.04,2.76,2.57,2.76.96,0,1.51-.25,1.7-.35l.12-.07-.23-.72-.18.09c-.29.14-.66.27-1.35.27-1.09,0-1.74-.71-1.79-1.95h3.76l.03-.13c.03-.11.03-.2.03-.35,0-.93-.46-2.5-2.18-2.5M300.32,28.06c.39,0,.71.12.93.35.33.33.41.83.43,1.11h-2.89c.14-.71.61-1.46,1.53-1.46"/>
    <path class="cls-10" d="M305.3,29.69c-.74-.31-.95-.51-.95-.9,0-.33.22-.72.83-.72.35,0,.67.09.93.28l.17.12.34-.73-.12-.08c-.32-.22-.77-.35-1.24-.35-1.15,0-1.76.79-1.76,1.57,0,.68.48,1.21,1.42,1.56.73.3.98.55.98,1.01,0,.5-.39.81-1.03.81-.46,0-.87-.21-1.07-.33l-.17-.11-.32.75.12.08c.39.24.9.38,1.4.38,1.14,0,1.91-.66,1.91-1.64s-.77-1.43-1.44-1.68"/>
    <path class="cls-10" d="M310.48,28.17v-.76h-1.47v-1.21l-.86.32v.89h-.87v.76h.87v3.08c0,.63.12,1.07.36,1.34.22.28.57.43,1.01.43.31,0,.57-.05.79-.14l.12-.05-.12-.71-.19.06c-.09.03-.26.07-.54.07s-.58-.1-.58-.89v-3.18h1.47Z"/>
  </g>
  <g>
    <polygon class="cls-25" points="122.21 6.7 121.89 6.59 116.49 23.37 116.81 23.47 122.21 6.7"/>
    <polygon class="cls-25" points="124.23 6.7 124.55 6.59 129.95 23.37 129.63 23.47 124.23 6.7"/>
    <polygon class="cls-25" points="101.07 6.7 100.75 6.59 95.34 23.37 95.67 23.47 101.07 6.7"/>
    <polygon class="cls-25" points="103.08 6.7 103.4 6.59 108.81 23.37 108.49 23.47 103.08 6.7"/>
    <path class="cls-25" d="M126.8,36.34h-14.24v-13.59c12.41.24,18.62.35,18.62.35-.61,3.81-3.71,6.72-7.54,7.09-3.83.37-7.42-1.91-8.74-5.54-.89,1.81-1.39,3.79-1.47,5.81,0,1.15.61,2.21,1.61,2.8,1.64.94,2.51.14,4.03-.17,4.95-1.02,7.58-.29,7.86,2.22.02.31-.02.66-.13,1.04"/>
    <path class="cls-25" d="M98.43,36.34h14.24v-13.59c-12.41.24-18.62.35-18.62.35.6,3.81,3.71,6.72,7.54,7.09,3.83.37,7.42-1.91,8.73-5.54.9,1.81,1.4,3.79,1.48,5.81,0,1.15-.61,2.21-1.61,2.8-1.57.9-2.84.06-4.39-.24-4.72-.91-7.22-.15-7.51,2.29,0,.31.03.66.14,1.04"/>
    <path class="cls-25" d="M113.32,22.82c-.52-.01-.77-.01-.77-.01V.92c1.75,0,2.53,1.06,2.11,2.13,2.97-.08,5.72.66,8.27,2.22-.02-.56.27-1.08.74-1.36.48-.29,1.07-.29,1.56,0,.41.24.68.66.73,1.11.12,1.05-.37,1.93-1.45,2.18-.76.18-1.81.13-3.21-.15-2.89-1.01-5.48-1.02-7.76-.03,1.85,8.5,1.77,13.77-.22,15.8Z"/>
    <path class="cls-25" d="M111.93,22.82c.53-.01.78-.01.78-.01V.92c-1.86,0-2.53,1.06-2.12,2.13-2.97-.08-5.72.66-8.27,2.22.02-.56-.26-1.08-.74-1.36-.48-.29-1.07-.29-1.55,0-.41.24-.67.66-.73,1.11-.12,1.05.37,1.93,1.45,2.18.77.18,1.81.13,3.21-.15,2.89-1.01,5.48-1.02,7.77-.03-1.84,8.5-1.78,13.77.21,15.8Z"/>
    <path class="cls-27" d="M139.77,9.76v3.54h4.29v1.45h-4.29v4.61h-1.79v-11.06h6.84v1.45h-5.05ZM149.38,15.93c-.59.02-1.07.07-1.48.14-.4.08-.72.17-.97.29-.25.12-.43.25-.54.41-.11.16-.16.34-.16.53s.03.34.09.47c.05.13.14.24.24.33.11.08.23.14.37.18.14.04.29.06.46.06.43,0,.79-.08,1.1-.24.31-.17.61-.4.89-.71v-1.45ZM145.04,12.62c.87-.83,1.92-1.23,3.14-1.23.45,0,.84.07,1.19.21.35.15.64.36.87.63.24.26.42.58.55.94.12.37.19.77.19,1.21v4.98h-.74c-.16,0-.28-.03-.36-.08-.08-.05-.15-.15-.21-.3l-.16-.64c-.2.18-.4.34-.59.49-.2.14-.39.26-.59.36-.21.09-.43.17-.67.21-.24.05-.5.08-.78.08-.31,0-.6-.05-.87-.13-.28-.09-.51-.22-.71-.4-.2-.18-.36-.4-.47-.66-.12-.26-.18-.57-.18-.92,0-.3.08-.6.25-.88.16-.29.42-.55.78-.78.37-.23.85-.42,1.46-.57.61-.15,1.34-.23,2.22-.25v-.53c0-.56-.12-.97-.36-1.25-.24-.28-.58-.42-1.05-.42-.31,0-.58.04-.79.12-.21.08-.4.17-.56.26-.15.09-.29.18-.42.26-.12.08-.25.12-.39.12-.11,0-.21-.03-.29-.09-.07-.06-.14-.13-.19-.22l-.3-.54ZM154.59,19.36h-1.64v-7.84h1.64v7.84ZM154.87,9.17c0,.14-.03.29-.09.42-.06.13-.14.25-.24.35-.11.1-.22.18-.36.24-.13.06-.28.09-.43.09s-.29-.03-.42-.09c-.13-.06-.25-.14-.34-.24-.1-.1-.18-.22-.24-.35-.06-.13-.09-.28-.09-.42,0-.16.03-.3.09-.44.06-.13.14-.25.24-.35.09-.1.21-.18.34-.24.13-.06.27-.09.42-.09s.3.03.43.09c.14.06.25.14.36.24.1.1.18.22.24.35.06.14.09.28.09.44M158.2,12.98c.24-.5.54-.89.88-1.17.34-.28.75-.42,1.24-.42.17,0,.33.01.47.05.15.04.28.1.4.18l-.11,1.24c-.02.09-.05.14-.1.18-.04.03-.1.05-.17.05-.08,0-.19-.02-.33-.04-.14-.03-.3-.05-.45-.05-.23,0-.44.04-.61.1-.18.07-.34.17-.48.3-.14.13-.26.28-.37.47-.11.18-.21.39-.3.63v4.87h-1.64v-7.84h.95c.17,0,.29.03.36.1.07.06.11.18.14.33l.1,1.02ZM168.81,9.8h-3.41v9.56h-1.78v-9.56h-3.42v-1.5h8.61v1.5ZM169.98,12.98c.24-.5.54-.89.88-1.17.34-.28.75-.42,1.24-.42.17,0,.32.01.47.05.15.04.28.1.4.18l-.11,1.24c-.02.09-.05.14-.1.18-.04.03-.1.05-.17.05-.08,0-.19-.02-.33-.04-.14-.03-.3-.05-.45-.05-.23,0-.44.04-.61.1-.18.07-.34.17-.48.3-.14.13-.26.28-.37.47-.11.18-.21.39-.3.63v4.87h-1.64v-7.84h.95c.17,0,.29.03.36.1.07.06.11.18.14.33l.1,1.02ZM178.08,15.93c-.58.02-1.08.07-1.48.14-.4.08-.72.17-.97.29-.25.12-.43.25-.54.41-.11.16-.17.34-.17.53s.03.34.09.47c.06.13.14.24.25.33.1.08.22.14.36.18.15.04.3.06.47.06.43,0,.79-.08,1.1-.24.31-.17.61-.4.89-.71v-1.45ZM173.74,12.62c.88-.83,1.92-1.23,3.14-1.23.45,0,.84.07,1.19.21.35.15.63.36.87.63.24.26.42.58.54.94.13.37.19.77.19,1.21v4.98h-.72c-.16,0-.28-.03-.37-.08-.08-.05-.15-.15-.2-.3l-.16-.64c-.2.18-.4.34-.59.49-.2.14-.4.26-.6.36-.2.09-.43.17-.65.21-.24.05-.5.08-.78.08-.32,0-.6-.05-.88-.13-.27-.09-.51-.22-.71-.4-.2-.18-.35-.4-.47-.66-.11-.26-.17-.57-.17-.92,0-.3.08-.6.24-.88.16-.29.43-.55.79-.78.37-.23.85-.42,1.46-.57.6-.15,1.34-.23,2.22-.25v-.53c0-.56-.12-.97-.36-1.25-.24-.28-.59-.42-1.05-.42-.32,0-.58.04-.79.12-.21.08-.4.17-.56.26-.16.09-.3.18-.42.26-.12.08-.25.12-.39.12-.12,0-.21-.03-.29-.09-.08-.06-.14-.13-.2-.22l-.3-.54ZM186.54,13.45c-.23-.3-.48-.51-.75-.63-.27-.11-.57-.17-.88-.17-.65,0-1.14.23-1.51.71-.36.48-.54,1.17-.54,2.1,0,.49.04.89.12,1.23.08.34.2.62.35.84.16.21.34.37.56.47.22.1.47.15.74.15.42,0,.77-.1,1.08-.28.3-.18.58-.44.83-.77v-3.65ZM188.17,7.99v11.37h-.99c-.22,0-.36-.11-.42-.32l-.14-.86c-.33.39-.7.7-1.11.93-.42.23-.89.35-1.44.35-.44,0-.83-.09-1.19-.27-.36-.17-.66-.43-.91-.76-.26-.34-.45-.76-.59-1.25-.15-.51-.22-1.07-.22-1.72,0-.58.08-1.12.24-1.62.15-.5.38-.92.66-1.29.29-.37.64-.65,1.05-.86.42-.21.87-.31,1.39-.31.46,0,.84.07,1.17.21.32.15.61.36.85.62v-4.22h1.64ZM195.27,14.56c0-.28-.04-.54-.12-.78-.08-.24-.2-.44-.35-.62-.16-.18-.35-.32-.57-.42-.23-.1-.49-.15-.78-.15-.6,0-1.06.18-1.4.52-.35.34-.56.83-.64,1.44h3.86ZM191.36,15.57c.02.45.09.83.21,1.15.11.33.27.6.47.82.2.21.43.37.71.48.27.1.57.16.9.16.32,0,.6-.04.83-.12.23-.07.44-.15.61-.24.18-.09.32-.18.45-.25.12-.08.23-.11.33-.11.14,0,.24.05.31.15l.47.61c-.2.23-.42.43-.65.59-.25.16-.51.29-.77.39-.28.1-.56.17-.85.21-.29.05-.57.07-.84.07-.54,0-1.03-.09-1.49-.27-.47-.19-.86-.45-1.2-.8-.34-.35-.59-.79-.79-1.31-.19-.52-.29-1.12-.29-1.8,0-.55.09-1.05.26-1.52.17-.47.42-.88.73-1.23.32-.35.71-.62,1.16-.83.45-.2.96-.3,1.54-.3.48,0,.91.08,1.32.23.41.16.76.39,1.05.7.3.3.53.67.69,1.1.16.44.25.93.25,1.49,0,.26-.03.43-.09.52-.05.09-.16.13-.31.13h-4.98ZM202.89,12.95c-.04.07-.08.12-.13.15-.06.04-.12.05-.2.05s-.18-.03-.28-.08c-.1-.06-.22-.11-.36-.18-.14-.07-.3-.13-.48-.18-.18-.06-.4-.08-.65-.08-.21,0-.39.02-.56.07-.17.05-.31.12-.42.21-.12.09-.21.19-.27.31-.06.12-.09.26-.09.39,0,.19.06.34.17.47.11.12.26.23.44.32.19.09.4.17.62.24.24.07.48.15.72.23.25.08.49.18.72.29.23.11.44.24.62.39.18.16.33.35.44.58.11.22.17.49.17.8,0,.37-.07.71-.2,1.02-.13.31-.33.58-.58.82-.26.23-.58.41-.95.54-.38.12-.81.19-1.3.19-.27,0-.53-.03-.77-.08-.26-.04-.5-.11-.72-.2-.23-.08-.44-.18-.63-.3-.2-.12-.37-.25-.53-.39l.39-.63c.04-.08.1-.14.17-.18.07-.05.15-.07.26-.07.1,0,.21.04.32.11.1.07.22.14.36.23.14.08.31.15.5.22.2.07.45.11.74.11.24,0,.46-.03.63-.09.18-.06.33-.14.45-.24.12-.11.2-.23.26-.36.06-.13.08-.27.08-.42,0-.2-.05-.36-.16-.49-.12-.13-.27-.24-.45-.33-.19-.09-.4-.18-.63-.25-.24-.07-.48-.15-.73-.23-.24-.08-.48-.18-.71-.29-.24-.1-.45-.24-.63-.41-.18-.17-.33-.37-.45-.61-.11-.24-.16-.53-.16-.87,0-.32.06-.62.18-.89.13-.28.31-.53.56-.75.24-.21.54-.39.88-.51.36-.13.76-.19,1.22-.19.53,0,1,.08,1.43.25.43.17.78.41,1.07.7l-.37.6Z"/>
    <path class="cls-24" d="M140.27,24.92c-.3.01-.56.03-.76.07-.22.04-.39.09-.53.15-.13.07-.23.14-.29.22-.06.09-.09.18-.09.29,0,.1.02.18.05.25.03.08.08.13.13.18.06.05.12.08.2.1.07.02.15.03.24.03.12,0,.22-.01.32-.03.09-.03.19-.06.27-.11.09-.04.17-.09.24-.16.08-.06.16-.13.23-.21v-.78ZM138.16,23.39c.21-.2.43-.35.67-.45.24-.1.51-.15.79-.15.21,0,.39.03.56.1.16.07.3.17.41.29.11.13.19.28.25.45.06.18.09.37.09.59v2.4h-.3c-.06,0-.11-.01-.15-.03-.03-.03-.06-.07-.08-.13l-.07-.36c-.1.1-.2.18-.29.25-.09.07-.19.13-.3.18-.1.04-.21.08-.33.11-.11.02-.24.04-.39.04-.14,0-.28-.02-.41-.06-.13-.05-.24-.11-.33-.19-.1-.08-.17-.18-.23-.31-.05-.12-.08-.27-.08-.44,0-.15.04-.3.12-.43.08-.14.21-.26.4-.37.18-.11.42-.2.7-.26.29-.07.64-.11,1.07-.12v-.29c0-.3-.06-.52-.19-.67-.12-.15-.31-.22-.55-.22-.16,0-.3.02-.41.06-.11.04-.2.08-.28.13-.08.05-.15.1-.21.14-.06.04-.12.06-.17.06s-.08-.01-.12-.03c-.03-.03-.06-.05-.08-.09l-.12-.21ZM142.56,25.71c.12.16.25.28.4.35.14.06.3.1.48.1.35,0,.61-.13.79-.38.19-.25.29-.61.29-1.06,0-.25-.03-.46-.07-.63-.04-.18-.1-.33-.19-.44-.08-.11-.18-.19-.3-.25-.11-.05-.25-.07-.4-.07-.21,0-.4.05-.56.14-.16.1-.31.24-.45.43v1.81ZM142.53,23.44c.16-.2.34-.35.55-.47.2-.12.44-.18.7-.18.21,0,.41.04.58.12.18.09.33.21.45.37.13.16.22.37.29.61.06.24.1.52.1.83,0,.28-.04.53-.11.77-.08.24-.18.45-.32.63-.14.17-.31.31-.51.41-.21.1-.43.15-.68.15-.23,0-.43-.04-.59-.12-.17-.08-.31-.18-.44-.32v1.66h-.65v-5.02h.39c.1,0,.16.04.18.13l.06.45ZM146.68,25.71c.12.16.25.28.4.35.14.06.3.1.48.1.35,0,.61-.13.79-.38.19-.25.28-.61.28-1.06,0-.25-.02-.46-.06-.63-.04-.18-.11-.33-.19-.44s-.18-.19-.3-.25c-.12-.05-.25-.07-.4-.07-.21,0-.4.05-.56.14-.17.1-.31.24-.45.43v1.81ZM146.65,23.44c.15-.2.34-.35.54-.47.21-.12.45-.18.7-.18.22,0,.42.04.59.12.18.09.33.21.45.37.12.16.22.37.29.61.06.24.1.52.1.83,0,.28-.04.53-.12.77-.07.24-.18.45-.32.63-.13.17-.3.31-.51.41-.2.1-.42.15-.68.15-.22,0-.42-.04-.58-.12-.16-.08-.3-.18-.43-.32v1.66h-.65v-5.02h.39c.1,0,.15.04.18.13l.06.45ZM150.76,23.61c.12-.26.26-.46.44-.6.17-.15.38-.22.62-.22.08,0,.16.01.23.03.07.01.14.04.19.08l-.05.49c-.01.06-.05.1-.11.1-.03,0-.08-.01-.15-.03-.07,0-.14-.02-.22-.02-.12,0-.23.02-.32.05-.09.04-.18.09-.25.16-.07.07-.14.15-.19.25-.06.1-.12.22-.16.35v2.37h-.65v-3.75h.37c.07,0,.12.01.15.04.03.02.05.07.06.14l.04.57ZM154.23,22.8c.27,0,.52.04.73.13.22.1.41.23.56.4.16.16.28.37.36.61.08.24.12.5.12.79s-.04.57-.12.8c-.08.24-.2.45-.36.62-.15.16-.34.29-.56.38-.22.09-.47.14-.73.14s-.53-.05-.74-.14c-.22-.09-.41-.22-.56-.38-.16-.17-.28-.38-.36-.62-.08-.23-.12-.5-.12-.8s.04-.56.12-.79c.08-.24.2-.45.36-.61.15-.17.34-.3.56-.4.22-.09.47-.13.74-.13M154.23,26.14c.37,0,.63-.12.82-.37.18-.25.27-.6.27-1.04s-.09-.79-.27-1.04c-.19-.25-.46-.37-.82-.37-.19,0-.35.03-.49.09-.14.07-.26.16-.35.28-.09.13-.16.27-.21.45-.04.18-.07.38-.07.6,0,.45.1.8.28,1.04.18.25.46.37.83.37ZM159.91,22.86l-1.52,3.75h-.59l-1.52-3.75h.54c.06,0,.1.01.13.04.04.02.06.06.07.09l.95,2.42c.03.09.05.18.07.27.03.09.05.17.07.26.02-.09.04-.17.06-.26.02-.09.05-.18.08-.27l.95-2.42s.04-.07.08-.1c.03-.02.07-.03.12-.03h.51ZM162.9,24.32c0-.15-.03-.29-.07-.42-.04-.13-.1-.24-.19-.33-.08-.1-.18-.17-.3-.22-.12-.05-.25-.08-.4-.08-.32,0-.57.1-.74.28-.19.19-.3.44-.34.77h2.03ZM163.43,26.08c-.08.1-.18.18-.29.26-.12.07-.24.13-.37.18-.13.05-.26.08-.4.1-.14.03-.27.04-.41.04-.26,0-.49-.04-.71-.13-.21-.09-.4-.22-.56-.39-.16-.17-.29-.38-.37-.63-.09-.25-.14-.54-.14-.86,0-.27.04-.51.12-.74.08-.23.2-.43.35-.6.15-.16.33-.29.55-.39.22-.1.46-.14.72-.14.23,0,.44.03.62.11.19.08.35.18.49.33.14.14.25.32.33.53.08.21.12.45.12.71,0,.11-.01.18-.04.21-.02.04-.06.05-.12.05h-2.49c0,.24.04.45.1.63.06.17.14.32.24.44.11.11.23.2.37.26.15.06.31.09.49.09.16,0,.3-.02.42-.06.12-.04.23-.08.31-.12.09-.05.16-.09.22-.13.06-.04.11-.06.15-.06.05,0,.09.03.12.07l.19.24ZM166.71,23.75c-.13-.16-.26-.28-.4-.35-.15-.06-.31-.09-.48-.09-.35,0-.61.12-.8.37-.18.25-.28.61-.28,1.07,0,.24.02.45.07.63.04.17.1.31.18.43.08.11.18.19.3.25.12.05.25.07.4.07.22,0,.41-.05.56-.14.16-.1.31-.24.45-.43v-1.81ZM167.37,21.15v5.46h-.4c-.09,0-.15-.05-.17-.14l-.06-.46c-.16.2-.35.35-.55.47-.21.12-.44.18-.7.18-.22,0-.41-.04-.59-.13-.17-.08-.32-.2-.44-.36-.13-.16-.22-.36-.29-.6-.07-.25-.1-.52-.1-.83,0-.28.04-.54.11-.78.08-.24.18-.45.32-.62.14-.18.31-.32.51-.42.2-.1.43-.15.68-.15.23,0,.43.04.58.12.16.07.31.18.44.32v-2.08h.65ZM171.43,26.67c-.3,0-.53-.09-.68-.25-.16-.17-.24-.41-.24-.72v-2.3h-.45s-.07-.01-.1-.03c-.02-.03-.04-.06-.04-.11v-.27l.62-.08.15-1.15s.02-.07.05-.09c.02-.03.06-.04.1-.04h.33v1.29h1.08v.48h-1.08v2.25c0,.16.04.28.12.36.07.08.17.11.29.11.07,0,.13-.01.18-.02.05-.02.1-.04.13-.07.04-.02.07-.04.1-.06.03-.02.05-.02.07-.02.03,0,.06.02.09.06l.19.32c-.11.1-.25.19-.41.25-.16.06-.32.09-.49.09ZM173.53,23.61c.12-.26.27-.46.44-.6.17-.15.38-.22.62-.22.08,0,.16.01.23.03.07.01.14.04.19.08l-.04.49c-.02.06-.05.1-.11.1-.04,0-.09-.01-.16-.03-.06,0-.14-.02-.22-.02-.12,0-.22.02-.32.05-.09.04-.17.09-.25.16-.07.07-.13.15-.19.25-.06.1-.11.22-.16.35v2.37h-.65v-3.75h.38c.07,0,.12.01.14.04.03.02.05.07.06.14l.04.57ZM177.54,24.92c-.3.01-.56.03-.76.07-.21.04-.39.09-.51.15-.14.07-.23.14-.29.22-.06.09-.1.18-.1.29,0,.1.02.18.05.25.03.08.08.13.13.18.06.05.13.08.2.1.08.02.16.03.24.03.12,0,.22-.01.32-.03.1-.03.19-.06.27-.11.09-.04.17-.09.25-.16.08-.06.15-.13.22-.21v-.78ZM175.43,23.39c.2-.2.43-.35.67-.45.24-.1.5-.15.78-.15.21,0,.4.03.56.1.16.07.3.17.41.29.11.13.2.28.25.45.06.18.09.37.09.59v2.4h-.29c-.07,0-.12-.01-.15-.03-.04-.03-.06-.07-.08-.13l-.08-.36c-.1.1-.19.18-.29.25-.09.07-.19.13-.29.18-.11.04-.22.08-.33.11-.12.02-.25.04-.39.04-.15,0-.29-.02-.41-.06-.13-.05-.24-.11-.34-.19-.09-.08-.17-.18-.22-.31-.06-.12-.09-.27-.09-.44,0-.15.04-.3.12-.43.09-.14.22-.26.4-.37s.42-.2.7-.26c.3-.07.65-.11,1.07-.12v-.29c0-.3-.06-.52-.18-.67-.13-.15-.31-.22-.56-.22-.16,0-.29.02-.4.06s-.21.08-.29.13c-.08.05-.15.1-.21.14-.05.04-.11.06-.17.06-.04,0-.08-.01-.11-.03-.04-.03-.06-.05-.08-.09l-.12-.21ZM181.6,23.75c-.12-.16-.25-.28-.4-.35-.14-.06-.3-.09-.48-.09-.34,0-.61.12-.79.37-.19.25-.28.61-.28,1.07,0,.24.02.45.06.63.04.17.11.31.19.43.08.11.18.19.3.25.12.05.25.07.4.07.22,0,.41-.05.57-.14.16-.1.31-.24.44-.43v-1.81ZM182.25,21.15v5.46h-.39c-.09,0-.15-.05-.18-.14l-.06-.46c-.16.2-.34.35-.54.47-.21.12-.45.18-.71.18-.22,0-.41-.04-.58-.13-.17-.08-.32-.2-.45-.36-.12-.16-.22-.36-.28-.6-.07-.25-.1-.52-.1-.83,0-.28.04-.54.11-.78.07-.24.18-.45.32-.62.14-.18.31-.32.5-.42.2-.1.42-.15.68-.15.22,0,.42.04.59.12.16.07.31.18.43.32v-2.08h.65ZM185.78,24.32c0-.15-.03-.29-.07-.42-.04-.13-.1-.24-.19-.33-.08-.1-.18-.17-.3-.22-.12-.05-.25-.08-.4-.08-.32,0-.57.1-.74.28-.19.19-.3.44-.34.77h2.04ZM186.31,26.08c-.08.1-.18.18-.29.26-.12.07-.24.13-.37.18-.13.05-.26.08-.4.1-.14.03-.27.04-.41.04-.26,0-.5-.04-.72-.13-.21-.09-.4-.22-.56-.39-.16-.17-.29-.38-.37-.63-.09-.25-.14-.54-.14-.86,0-.27.04-.51.12-.74.08-.23.2-.43.35-.6.15-.16.33-.29.55-.39.22-.1.46-.14.72-.14.23,0,.44.03.62.11.19.08.35.18.49.33.14.14.25.32.33.53.08.21.12.45.12.71,0,.11-.01.18-.04.21-.02.04-.06.05-.12.05h-2.49c.01.24.04.45.1.63.06.17.14.32.24.44.11.11.23.2.37.26.15.06.31.09.49.09.16,0,.3-.02.42-.06.12-.04.23-.08.31-.12.09-.05.16-.09.22-.13.06-.04.11-.06.15-.06.05,0,.09.03.12.07l.19.24ZM189.34,23.48c-.03.05-.08.08-.14.08-.04,0-.08,0-.12-.04-.05-.03-.11-.06-.18-.09-.06-.04-.15-.07-.24-.1-.09-.02-.2-.04-.33-.04-.11,0-.21.02-.3.04-.09.03-.17.07-.23.12-.06.05-.11.11-.14.17-.04.07-.05.14-.05.22,0,.1.02.18.08.24.06.07.13.12.22.17.09.05.19.09.31.12.12.04.24.08.36.12.12.04.24.09.35.13.12.05.22.12.32.19.09.08.16.17.22.27.05.11.08.24.08.39,0,.18-.03.34-.09.49-.07.14-.16.27-.28.38-.12.11-.27.19-.44.25-.18.07-.38.1-.61.1-.26,0-.49-.05-.7-.13-.21-.09-.39-.2-.54-.33l.16-.25s.04-.06.07-.08c.02-.02.06-.02.1-.02.04,0,.09.01.14.05.05.03.11.07.18.11.07.05.16.08.26.12.1.03.22.05.38.05.12,0,.24-.02.33-.05.1-.03.18-.08.24-.14.07-.05.11-.12.15-.19.03-.08.04-.16.04-.24,0-.1-.03-.19-.08-.26-.06-.07-.13-.13-.22-.18-.09-.04-.2-.09-.31-.12-.12-.04-.24-.07-.36-.11-.13-.04-.25-.09-.36-.14-.12-.05-.22-.12-.32-.19-.09-.08-.16-.17-.22-.29-.05-.11-.08-.25-.08-.41,0-.14.03-.28.09-.41.06-.14.15-.25.26-.35.11-.1.25-.18.42-.24.16-.06.35-.09.56-.09.25,0,.47.04.67.11.19.08.36.19.51.33l-.15.24ZM190.35,26.61v-3.75h.4c.09,0,.15.04.17.13l.05.39c.14-.17.29-.31.46-.42.18-.11.38-.16.6-.16.26,0,.46.07.61.21.15.14.27.33.33.57.06-.13.13-.25.21-.35.09-.1.18-.18.29-.25.11-.06.22-.11.34-.14.12-.03.24-.04.36-.04.2,0,.38.03.53.09.16.06.29.16.39.28.11.12.19.27.25.45.06.17.08.38.08.61v2.39h-.65v-2.39c0-.3-.06-.52-.19-.68-.13-.15-.31-.22-.56-.22-.1,0-.21.01-.3.05-.1.04-.19.1-.26.17-.08.08-.13.17-.18.28-.04.12-.06.25-.06.4v2.39h-.65v-2.39c0-.31-.07-.53-.19-.68-.12-.15-.29-.22-.53-.22-.16,0-.31.04-.45.13-.13.09-.26.21-.38.36v2.79h-.65ZM198.88,24.32c0-.15-.02-.29-.07-.42-.04-.13-.1-.24-.19-.33-.08-.1-.18-.17-.3-.22-.12-.05-.25-.08-.4-.08-.32,0-.57.1-.74.28-.18.19-.3.44-.34.77h2.03ZM199.41,26.08c-.08.1-.18.18-.29.26-.12.07-.24.13-.37.18-.13.05-.26.08-.4.1-.14.03-.27.04-.41.04-.26,0-.49-.04-.71-.13-.21-.09-.4-.22-.56-.39-.16-.17-.29-.38-.37-.63-.09-.25-.14-.54-.14-.86,0-.27.04-.51.12-.74s.2-.43.35-.6c.15-.16.33-.29.55-.39.22-.1.46-.14.72-.14.23,0,.44.03.62.11.19.08.35.18.49.33.14.14.25.32.33.53.08.21.12.45.12.71,0,.11-.01.18-.03.21-.03.04-.07.05-.13.05h-2.49c0,.24.04.45.1.63.06.17.14.32.24.44.11.11.23.2.37.26.15.06.31.09.49.09.16,0,.3-.02.42-.06.12-.04.23-.08.31-.12.09-.05.16-.09.22-.13.06-.04.11-.06.15-.06.05,0,.09.03.12.07l.19.24ZM200.89,23.4c.08-.09.17-.17.26-.25.09-.07.19-.13.29-.19.1-.05.21-.09.32-.12.12-.03.24-.04.37-.04.21,0,.39.03.55.1.15.07.28.16.39.29.1.12.18.28.24.45.05.18.08.37.08.59v2.39h-.65v-2.39c0-.29-.07-.51-.2-.67-.13-.16-.32-.23-.59-.23-.19,0-.37.04-.54.14-.17.09-.33.22-.47.38v2.76h-.65v-3.75h.39c.1,0,.15.04.18.13l.05.41Z"/>
    <rect class="cls-24" x="137.98" y="4.36" width="65.39" height=".73"/>
    <path class="cls-24" d="M156.96,31.63c0-.11-.02-.21-.05-.3-.03-.09-.08-.17-.13-.23-.06-.06-.13-.11-.21-.14-.08-.04-.17-.05-.26-.05-.11,0-.21.01-.3.05-.08.03-.16.08-.22.14-.06.07-.11.14-.15.23-.04.09-.07.19-.08.3h1.39ZM155.56,31.76v.04c0,.16.02.3.06.42.03.12.09.22.15.3.07.08.15.14.25.18.09.04.2.06.32.06.11,0,.2-.01.28-.03.07-.03.14-.05.19-.08.05-.03.1-.06.13-.08.03-.02.05-.03.07-.03,0,0,.03,0,.04.02l.05.06s-.08.09-.13.12c-.06.04-.12.07-.19.1-.07.02-.14.04-.22.06-.08.02-.16.02-.23.02-.15,0-.28-.02-.4-.07-.12-.05-.22-.12-.3-.22-.09-.1-.15-.21-.2-.35-.04-.14-.07-.3-.07-.48,0-.15.02-.29.07-.42.04-.13.1-.24.18-.33.08-.09.18-.16.3-.22.12-.05.25-.07.4-.07.12,0,.23.02.33.06.1.04.19.1.27.18.07.07.13.17.17.29.05.11.07.24.07.39,0,.03-.01.05-.01.06-.01.01-.03.02-.05.02h-1.52ZM158.84,31.05s-.03.03-.05.03c-.02,0-.04-.01-.06-.03-.03,0-.06-.03-.1-.06-.04-.02-.09-.04-.15-.06-.06-.01-.13-.02-.21-.02s-.15.01-.21.03c-.07.02-.12.05-.16.09-.05.04-.08.08-.11.13-.02.05-.03.1-.03.15,0,.07.01.12.05.17.03.04.08.08.13.11.06.03.12.06.19.08.07.02.14.04.21.07.08.02.15.04.22.07.07.03.13.06.19.1.05.04.09.09.13.15.03.06.05.14.05.22,0,.09-.02.18-.05.26-.03.08-.08.14-.14.2-.07.06-.14.11-.24.14-.09.03-.19.05-.31.05-.15,0-.28-.02-.38-.07-.11-.05-.21-.11-.29-.19l.05-.07s.01-.02.02-.02c.01-.01.02-.01.04-.01.01,0,.04.01.06.03.03.02.06.05.11.07.04.03.1.06.16.08.06.02.14.03.24.03.09,0,.17-.01.23-.04.07-.02.13-.05.17-.1.05-.04.08-.09.11-.15.02-.05.03-.11.03-.18s-.02-.13-.05-.17c-.03-.05-.08-.09-.13-.12-.06-.03-.12-.06-.19-.08-.07-.03-.14-.05-.22-.07-.07-.02-.14-.05-.21-.07-.07-.03-.13-.07-.19-.11-.05-.04-.1-.09-.13-.15-.04-.05-.05-.13-.05-.21s.01-.15.05-.22c.03-.07.08-.13.13-.18.06-.05.14-.1.22-.13.09-.03.19-.04.29-.04.13,0,.25.01.35.05.1.04.19.09.27.17l-.04.07ZM160.04,32.93c-.14,0-.25-.04-.33-.12-.08-.08-.12-.2-.12-.36v-1.43h-.3s-.03-.01-.04-.02c0-.01-.02-.02-.02-.03v-.08l.36-.03.05-.74s.01-.02.02-.03c.01-.01.02-.02.04-.02h.09v.8h.67v.15h-.67v1.41c0,.06.01.11.03.15.01.04.03.08.06.11.02.02.05.04.09.06.03.01.07.01.11.01.05,0,.1,0,.13-.02.04-.01.07-.03.1-.05.03-.01.05-.03.06-.05.02,0,.03-.02.04-.02.02,0,.03.01.04.02l.05.09c-.05.06-.12.11-.2.15-.08.03-.17.05-.26.05ZM162.08,31.88c-.2,0-.38.02-.51.05-.15.02-.27.05-.36.1-.09.04-.16.09-.21.15-.04.06-.07.12-.07.2,0,.07.02.13.04.18.02.05.05.09.09.13.04.03.09.05.14.07.05.02.1.02.16.02.08,0,.15-.01.22-.02.07-.02.13-.05.19-.08.06-.03.11-.07.17-.11.05-.04.1-.09.15-.14v-.55ZM160.85,31.1c.11-.11.22-.2.34-.25.13-.06.26-.09.42-.09.11,0,.21.02.29.06.09.03.16.08.21.15.06.07.1.15.13.25.03.09.04.2.04.31v1.37h-.08s-.07-.02-.08-.06l-.03-.27c-.05.05-.11.1-.17.15-.06.04-.12.08-.18.11-.06.03-.13.06-.2.07-.07.02-.15.03-.24.03-.07,0-.14-.01-.21-.03-.06-.02-.12-.06-.18-.1-.05-.04-.09-.1-.12-.17-.03-.07-.05-.15-.05-.24s.02-.18.08-.25c.05-.08.13-.14.23-.2.11-.06.25-.1.42-.14.17-.03.38-.05.61-.06v-.22c0-.19-.05-.34-.13-.45-.08-.1-.21-.15-.37-.15-.11,0-.19.01-.26.04-.07.03-.13.06-.18.09-.05.04-.09.07-.12.1-.04.02-.06.04-.08.04s-.03-.01-.04-.01c-.01-.01-.02-.02-.03-.03l-.03-.06ZM163.14,32.44c.08.12.17.2.27.25.1.05.21.07.33.07.13,0,.24-.02.33-.06.09-.05.17-.11.23-.2.07-.08.11-.18.14-.3.04-.12.05-.26.05-.41,0-.29-.06-.51-.17-.64-.12-.15-.28-.22-.49-.22-.15,0-.28.03-.39.1-.11.08-.21.18-.3.31v1.1ZM163.14,31.16c.09-.13.2-.23.32-.3.12-.07.27-.1.43-.1.12,0,.24.02.34.07.1.04.18.11.25.2.07.08.13.19.16.32.04.13.06.27.06.43,0,.18-.02.33-.06.47-.04.14-.1.26-.18.36s-.18.18-.29.23c-.11.06-.24.08-.39.08s-.27-.03-.38-.08c-.1-.06-.19-.14-.27-.26v.26s-.04.06-.07.06h-.12v-3.06h.2v1.33ZM165.47,32.9h-.2v-3.06h.2v3.06ZM166.41,32.9h-.2v-2.1h.2v2.1ZM166.49,30.07s0,.05-.01.07c-.01.03-.03.05-.04.06-.02.02-.04.03-.06.04-.02.01-.05.02-.07.02-.03,0-.05-.01-.08-.02-.02-.01-.04-.02-.05-.04-.02-.01-.04-.03-.05-.06-.01-.02-.01-.04-.01-.07,0-.02,0-.05.01-.07.01-.02.03-.04.05-.06.01-.02.03-.03.05-.04.03,0,.05,0,.08,0,.02,0,.05,0,.07,0,.02.01.04.02.06.04,0,.02.03.04.04.06.01.02.01.05.01.07M168.26,31.05s-.02.03-.05.03c-.01,0-.03-.01-.05-.03-.03,0-.06-.03-.1-.06-.04-.02-.09-.04-.15-.06-.06-.01-.13-.02-.22-.02-.07,0-.14.01-.2.03-.07.02-.12.05-.17.09-.04.04-.07.08-.1.13-.02.05-.03.1-.03.15,0,.07.01.12.05.17.03.04.07.08.13.11.05.03.12.06.19.08.07.02.14.04.21.07.07.02.15.04.22.07.07.03.13.06.18.1.06.04.1.09.14.15.03.06.05.14.05.22,0,.09-.02.18-.05.26-.03.08-.08.14-.14.2-.07.06-.15.11-.24.14-.09.03-.19.05-.31.05-.15,0-.28-.02-.39-.07-.1-.05-.2-.11-.28-.19l.04-.07s.02-.02.03-.02c.01-.01.02-.01.03-.01.02,0,.05.01.07.03.03.02.06.05.11.07.04.03.09.06.16.08.06.02.14.03.24.03.08,0,.16-.01.23-.04.07-.02.13-.05.17-.1.05-.04.08-.09.1-.15.03-.05.04-.11.04-.18s-.02-.13-.05-.17c-.04-.05-.08-.09-.14-.12-.05-.03-.11-.06-.18-.08-.07-.03-.14-.05-.22-.07-.07-.02-.14-.05-.21-.07-.07-.03-.14-.07-.19-.11-.06-.04-.1-.09-.13-.15-.04-.05-.05-.13-.05-.21s.01-.15.04-.22c.04-.07.08-.13.14-.18.06-.05.14-.1.22-.13.09-.03.18-.04.29-.04.13,0,.24.01.34.05.1.04.19.09.28.17l-.05.07ZM169.1,31.16c.1-.12.21-.22.33-.29.13-.07.27-.1.42-.1.12,0,.22.01.31.05.09.04.16.09.22.16.05.07.1.15.13.25s.04.21.04.33v1.34h-.2v-1.34c0-.2-.05-.35-.14-.47-.09-.11-.22-.16-.41-.16-.14,0-.26.03-.38.1-.12.07-.23.17-.32.29v1.58h-.21v-3.06h.21v1.32ZM172.68,31.63c0-.11-.02-.21-.05-.3-.03-.09-.07-.17-.13-.23-.06-.06-.13-.11-.21-.14-.08-.04-.17-.05-.26-.05-.11,0-.21.01-.29.05-.09.03-.16.08-.23.14-.06.07-.11.14-.15.23-.04.09-.06.19-.07.3h1.38ZM171.28,31.76v.04c0,.16.02.3.06.42.04.12.09.22.16.3.06.08.15.14.24.18.1.04.21.06.32.06s.2-.01.28-.03c.08-.03.14-.05.2-.08.05-.03.09-.06.12-.08s.05-.03.07-.03c.02,0,.03,0,.04.02l.06.06s-.08.09-.14.12c-.05.04-.12.07-.18.1-.07.02-.15.04-.22.06-.08.02-.16.02-.24.02-.14,0-.28-.02-.39-.07-.12-.05-.22-.12-.31-.22-.08-.1-.15-.21-.19-.35-.05-.14-.07-.3-.07-.48,0-.15.02-.29.06-.42.04-.13.11-.24.19-.33.08-.09.18-.16.3-.22.11-.05.25-.07.4-.07.11,0,.22.02.33.06.1.04.19.1.26.18.08.07.14.17.18.29.04.11.06.24.06.39,0,.03,0,.05-.01.06-.01.01-.02.02-.04.02h-1.53ZM174.83,31.25c-.08-.12-.17-.2-.27-.25-.1-.05-.21-.08-.34-.08-.12,0-.23.03-.32.07-.09.05-.17.11-.23.19-.07.08-.12.18-.15.3-.03.11-.04.24-.04.38,0,.31.05.54.17.69.11.15.28.22.5.22.13,0,.26-.04.38-.11.11-.07.21-.17.3-.3v-1.1ZM175.03,29.83v3.06h-.11s-.06-.02-.06-.06l-.03-.33c-.09.13-.2.23-.32.3-.13.08-.27.11-.42.11-.26,0-.46-.09-.61-.27-.14-.17-.21-.44-.21-.79,0-.16.02-.3.06-.43.04-.14.1-.25.17-.35.08-.1.18-.18.29-.23.12-.06.25-.09.39-.09.15,0,.27.03.37.08.11.05.2.13.28.23v-1.23h.2ZM178.61,32.74v.16h-1.54v-.16h.68v-2.56l-.65.58s-.04.03-.06.02c-.01,0-.03-.01-.04-.02l-.06-.09.85-.75h.16v2.83h.65ZM180.12,31.46c.12,0,.23-.02.33-.06.09-.04.17-.09.23-.16.07-.06.12-.14.15-.22.03-.08.05-.17.05-.25,0-.11-.02-.21-.05-.3-.04-.09-.09-.17-.15-.23-.06-.07-.14-.12-.22-.15-.09-.04-.19-.06-.29-.06-.11,0-.21.02-.3.06-.1.03-.17.08-.24.15-.07.06-.12.13-.15.22-.04.09-.06.19-.06.29,0,.11.02.21.05.3.03.09.08.16.14.23.06.06.14.1.23.14.08.03.18.04.28.04ZM180.52,31.66c.05-.06.09-.12.12-.17.04-.05.07-.11.1-.16-.08.1-.18.17-.3.22-.11.05-.24.07-.37.07-.12,0-.24-.02-.34-.06-.1-.04-.19-.1-.27-.17-.08-.08-.14-.17-.18-.27-.04-.11-.06-.22-.06-.35s.02-.25.07-.36c.05-.11.11-.2.2-.28.08-.09.18-.15.3-.19.12-.05.24-.07.38-.07s.26.02.37.06c.11.05.2.11.28.2.08.08.15.18.19.29.04.12.07.25.07.39,0,.07-.01.15-.03.22-.01.07-.04.14-.07.21-.03.07-.07.14-.12.22-.04.07-.09.15-.15.24l-.78,1.14s-.05.05-.1.05h-.18l.87-1.23ZM182.6,32.77c.12,0,.22-.02.32-.05.09-.03.17-.08.24-.13.07-.06.12-.13.15-.21.04-.09.06-.18.06-.28,0-.13-.02-.24-.07-.33-.05-.08-.11-.15-.19-.21-.07-.05-.15-.09-.24-.11-.09-.02-.18-.03-.27-.03-.08,0-.17.01-.26.03-.09.02-.17.06-.25.11-.07.06-.13.13-.18.21-.05.09-.07.2-.07.33,0,.1.02.19.05.28.04.08.09.15.16.21.07.05.15.1.24.13.09.03.2.05.31.05ZM181.93,30.64c0,.08.02.16.04.24.03.07.07.14.13.2.05.05.12.1.2.14.09.03.19.05.3.05.12,0,.22-.02.3-.05.09-.04.15-.09.21-.14.05-.06.1-.13.12-.2.03-.08.04-.16.04-.24s0-.16-.04-.24c-.03-.07-.08-.14-.13-.19-.06-.06-.13-.1-.21-.13-.09-.03-.18-.05-.29-.05-.1,0-.2.02-.28.05-.08.03-.15.07-.21.13-.06.05-.1.12-.13.19-.03.08-.05.16-.05.24ZM182.92,31.33c.1.02.19.05.27.1.08.04.15.09.2.16.06.06.11.13.14.22.03.09.05.18.05.29,0,.13-.03.25-.07.35-.05.1-.12.19-.2.26-.09.07-.19.12-.31.16-.12.04-.25.06-.4.06-.14,0-.27-.02-.39-.06-.12-.04-.22-.09-.31-.16-.08-.07-.15-.16-.2-.26-.05-.1-.07-.22-.07-.35,0-.11.02-.2.05-.29.03-.09.08-.16.13-.22.06-.07.13-.12.21-.16.08-.05.17-.08.26-.1-.09-.02-.16-.06-.23-.1-.07-.05-.13-.1-.17-.16-.05-.06-.08-.13-.11-.2-.02-.08-.03-.15-.03-.24,0-.1.02-.2.06-.3.04-.09.1-.17.17-.24.08-.07.17-.12.27-.16.11-.04.23-.06.36-.06.14,0,.26.02.36.06.11.04.2.09.28.16.07.07.13.15.17.24.04.1.06.2.06.3,0,.09,0,.16-.04.24-.02.07-.06.14-.1.2-.05.06-.11.11-.17.16-.07.04-.15.08-.24.1ZM184.15,30.69c.02-.13.05-.25.11-.35.05-.1.12-.18.2-.25.08-.07.17-.12.28-.16.1-.04.22-.05.34-.05.11,0,.22.01.32.04.1.04.19.08.27.15.08.06.14.14.18.23.05.1.07.21.07.33,0,.1-.02.19-.05.27-.03.07-.07.14-.12.2-.05.06-.11.11-.19.15-.07.04-.15.07-.23.09.22.04.38.13.5.26.11.13.16.29.16.48,0,.13-.02.24-.07.34-.05.11-.12.2-.2.28-.09.07-.19.13-.31.17-.11.05-.24.07-.38.07-.17,0-.31-.02-.42-.07-.12-.05-.21-.1-.29-.18-.07-.07-.13-.15-.17-.24-.04-.1-.07-.19-.1-.28l.08-.03s.05-.01.08-.01c.02.01.04.02.05.05.01.02.02.04.03.08,0,.03.03.08.05.12.02.04.05.09.09.13.03.05.08.09.13.13.06.04.12.07.2.09.08.03.17.04.27.04.13,0,.24-.02.33-.07.1-.04.18-.09.24-.16.07-.06.11-.14.15-.22.03-.08.04-.16.04-.23,0-.1-.01-.18-.04-.26s-.08-.15-.14-.2c-.07-.06-.16-.11-.27-.14-.11-.03-.25-.05-.41-.05v-.14c.13-.01.24-.03.34-.06.1-.03.18-.07.25-.13.07-.05.12-.12.15-.19.03-.08.05-.16.05-.26s-.02-.19-.05-.27c-.04-.08-.09-.14-.14-.19-.06-.05-.13-.09-.21-.12-.08-.02-.16-.03-.25-.03s-.18.01-.26.04c-.08.03-.15.07-.21.12-.07.05-.12.11-.16.19-.04.07-.07.15-.08.23-.01.03-.02.05-.04.06-.01.01-.04.02-.06.01h-.11Z"/>
    <path class="cls-25" d="M137.98,31.02h14.75v.73h-14.75v-.73ZM188.61,31.02h14.75v.73h-14.75v-.73Z"/>
  </g>
  <g>
    <text class="cls-5" transform="translate(8.32 29.63)"><tspan class="cls-26" x="0" y="0">C</tspan><tspan class="cls-17" x="3.35" y="0">ha</tspan><tspan class="cls-13" x="9.51" y="0">r</tspan><tspan class="cls-19" x="11.65" y="0">t</tspan><tspan class="cls-17" x="13.61" y="0">e</tspan><tspan class="cls-22" x="16.56" y="0">r</tspan><tspan class="cls-1" x="18.52" y="0">e</tspan><tspan class="cls-3" x="21.47" y="0">d</tspan><tspan class="cls-1" x="24.78" y="0"> </tspan><tspan class="cls-30" x="25.94" y="0">I</tspan><tspan class="cls-17" x="27.46" y="0">nstitu</tspan><tspan class="cls-16" x="41.77" y="0">t</tspan><tspan class="cls-1" x="43.72" y="0">e </tspan><tspan class="cls-18" x="47.83" y="0">o</tspan><tspan class="cls-1" x="51.05" y="0">f </tspan><tspan class="cls-26" x="54.01" y="0">P</tspan><tspan class="cls-1" x="57.19" y="0">lumbin</tspan><tspan x="74.82" y="0">g</tspan></text>
    <text class="cls-5" transform="translate(8.32 35.81)"><tspan class="cls-18" x="0" y="0">a</tspan><tspan class="cls-1" x="2.89" y="0">nd </tspan><tspan class="cls-3" x="10.65" y="0">He</tspan><tspan class="cls-9" x="17.44" y="0">a</tspan><tspan class="cls-3" x="20.3" y="0">t</tspan><tspan class="cls-1" x="22.28" y="0">in</tspan><tspan class="cls-2" x="26.99" y="0">g</tspan><tspan class="cls-1" x="30.27" y="0"> </tspan><tspan class="cls-3" x="31.42" y="0">En</tspan><tspan class="cls-15" x="37.63" y="0">g</tspan><tspan class="cls-1" x="40.88" y="0">ineerin</tspan><tspan class="cls-31" x="58.22" y="0">g</tspan></text>
    <rect class="cls-4" x="19.59" y=".82" width="6.88" height="23.33"/>
    <polygon class="cls-4" points="56.46 9.18 53.2 9.18 53.2 .82 46.32 .82 46.32 24.15 53.2 24.15 53.2 14.78 56.46 14.78 56.46 24.15 63.34 24.15 63.34 .82 56.46 .82 56.46 9.18"/>
    <polygon class="cls-4" points="78.04 6.6 78.04 .82 72.25 .82 65.37 .82 65.37 24.15 72.25 24.15 78.04 24.15 78.04 18.37 72.25 18.37 72.25 15.25 77.61 15.25 77.61 9.47 72.25 9.47 72.25 6.6 78.04 6.6"/>
    <path class="cls-4" d="M37.39.82h-9.04v23.33h6.88v-7.35h2.15c2.21,0,4.2-.9,5.65-2.34,1.44-1.44,2.34-3.44,2.34-5.65,0-4.41-3.57-7.99-7.99-7.99M37.52,10.94c-.49.49-1.16.79-1.9.79h-.39v-5.38h.39c1.49,0,2.69,1.2,2.69,2.69,0,.74-.3,1.41-.79,1.9"/>
    <path class="cls-6" d="M17.3.67v5.08c-1.15-.73-2.52-1.15-3.99-1.15-.42,0-.83.03-1.23.1-2.88.65-5.03,3.23-5.03,6.31v2.12c0,3.08,2.15,5.66,5.03,6.31.4.07.81.1,1.23.1,1.47,0,2.83-.42,3.99-1.15v5.08c-1.25.43-2.59.67-3.99.67h-1.7C5.2,24.15,0,18.95,0,12.53v-.92C0,5.2,5.2,0,11.62,0h1.7c1.4,0,2.74.24,3.99.67"/>
  </g>
  <g>
    <path class="cls-8" d="M614.88,7.05h6.21v2.86l-1.09.11-2.31,13.5h-5.01l-1.93-7.21c-.09-.35-.24-1.18-.44-2.46h-.07c-.01.06-.08.41-.18,1.05-.11.64-.19,1.11-.27,1.41l-1.91,7.21h-5.06l-2.31-13.5-1.09-.11v-2.86h6.23v2.86l-1.04.11.91,5.85c.04.31.17,1.35.38,3.13h.09c.06-.27.14-.73.24-1.38.1-.66.2-1.16.29-1.5l1.57-5.59h4.35l1.57,5.63c.1.37.21.89.31,1.56.1.67.17,1.1.2,1.28h.09c.1-1.18.23-2.22.38-3.13l.91-5.85-1.04-.11v-2.86Z"/>
    <path class="cls-8" d="M632.69,23.53h-4.52v-.82c-1.15.75-2.49,1.13-3.99,1.13-1.2,0-2.11-.3-2.75-.91-.64-.61-.95-1.51-.95-2.7v-.51c0-.81.14-1.48.43-2,.29-.52.74-.9,1.34-1.14.61-.24,1.23-.41,1.89-.49.65-.08,1.49-.12,2.51-.12h1.17v-.69c0-.77-.14-1.27-.42-1.5-.28-.23-.92-.34-1.91-.34-.27,0-.72.01-1.37.04l-.22.98h-2.48v-3.17c1.46-.5,3.09-.75,4.88-.75,1.98,0,3.38.35,4.19,1.06.81.71,1.22,1.94,1.22,3.68v5.32l1,.11v2.82ZM627.96,20.76v-2.79h-1.29c-.95,0-1.61.1-1.97.3-.37.2-.55.64-.55,1.32v.51c0,.83.48,1.24,1.44,1.24.89,0,1.68-.19,2.37-.58"/>
    <path class="cls-8" d="M640.94,23.51c-.83.22-1.77.33-2.82.33-1.36,0-2.34-.3-2.95-.89-.61-.59-.91-1.59-.91-2.99v-6.3l-2.2-.2v-2.62h2.2v-3.06h3.86v3.06h2.84v2.82h-2.82v6.25c0,.53.05.87.17,1.02.11.15.4.22.88.22.16,0,.75-.03,1.75-.09v2.44Z"/>
    <path class="cls-8" d="M653.64,18.25h-8.29v.18c0,.92.17,1.56.52,1.93.35.37,1.16.55,2.43.55,1.79,0,3.37-.07,4.75-.22v2.6c-1.51.37-3.15.55-4.92.55-2.35,0-4.04-.46-5.07-1.38-1.03-.92-1.54-2.47-1.54-4.62v-1.15c0-2.07.52-3.61,1.57-4.62,1.05-1.01,2.56-1.52,4.52-1.52,1.14,0,2.11.17,2.93.52.81.35,1.44.83,1.87,1.44.44.61.75,1.29.94,2.02.19.73.29,1.54.29,2.43v1.31ZM649.87,16.12v-.18c0-.83-.15-1.47-.45-1.93-.3-.46-.91-.69-1.81-.69s-1.46.23-1.77.7c-.31.46-.46,1.1-.46,1.92v.18h4.5Z"/>
    <path class="cls-8" d="M663.09,13.84c-1.42,0-2.72.18-3.9.55v6.21l1,.11v2.82h-5.88v-2.82l1.02-.11v-6.83l-1.02-.11v-2.82h4.61v1.06c.99-.92,2.38-1.37,4.17-1.37v3.3Z"/>
    <path class="cls-8" d="M676.13,18.87c0,1.64-.54,2.89-1.62,3.75-1.08.86-2.6,1.29-4.55,1.29-2.38,0-4.28-.18-5.7-.53v-3.9h2.51l.22,1.33c.56.03,1.38.04,2.46.04.89,0,1.53-.14,1.94-.42.41-.28.61-.73.61-1.33,0-.44-.13-.8-.39-1.06-.26-.27-.77-.57-1.54-.91l-2.39-1.06c-1.29-.58-2.25-1.22-2.88-1.93-.64-.71-.95-1.66-.95-2.86,0-1.6.54-2.76,1.61-3.49,1.07-.73,2.68-1.1,4.82-1.1,1.89,0,3.67.19,5.32.58v3.77h-2.5l-.25-1.26c-.75-.04-1.54-.07-2.35-.07-.89,0-1.54.11-1.95.33-.41.22-.62.6-.62,1.13,0,.4.13.72.38.97.25.24.75.54,1.51.88l2.31,1.02c1.43.63,2.46,1.3,3.08,1.98.62.69.93,1.64.93,2.87"/>
    <path class="cls-8" d="M689.32,23.53h-4.53v-.82c-1.15.75-2.48,1.13-3.99,1.13-1.2,0-2.11-.3-2.75-.91-.64-.61-.95-1.51-.95-2.7v-.51c0-.81.14-1.48.43-2,.29-.52.74-.9,1.34-1.14.61-.24,1.23-.41,1.89-.49.65-.08,1.49-.12,2.51-.12h1.17v-.69c0-.77-.14-1.27-.42-1.5-.28-.23-.92-.34-1.91-.34-.27,0-.72.01-1.37.04l-.22.98h-2.48v-3.17c1.46-.5,3.09-.75,4.88-.75,1.98,0,3.38.35,4.19,1.06.81.71,1.22,1.94,1.22,3.68v5.32l1,.11v2.82ZM684.6,20.76v-2.79h-1.29c-.95,0-1.61.1-1.97.3-.37.2-.55.64-.55,1.32v.51c0,.83.48,1.24,1.44,1.24.89,0,1.68-.19,2.37-.58"/>
    <path class="cls-8" d="M698.28,13.66h-2.95v6.94l1.02.11v2.82h-5.9v-2.82l1.02-.11v-6.94l-2.11-.2v-2.62h2.11v-1c0-1.33.3-2.32.89-2.97.59-.65,1.57-.98,2.95-.98,1.11,0,2.11.12,2.99.35v2.24c-.71-.04-1.3-.07-1.77-.07-.53,0-.87.1-1,.29-.13.19-.2.58-.2,1.18v.95h2.95v2.82Z"/>
    <path class="cls-8" d="M710.48,18.25h-8.29v.18c0,.92.17,1.56.52,1.93.35.37,1.16.55,2.43.55,1.79,0,3.37-.07,4.75-.22v2.6c-1.51.37-3.15.55-4.92.55-2.35,0-4.04-.46-5.07-1.38-1.03-.92-1.54-2.47-1.54-4.62v-1.15c0-2.07.52-3.61,1.57-4.62,1.05-1.01,2.56-1.52,4.52-1.52,1.14,0,2.11.17,2.93.52.81.35,1.44.83,1.87,1.44.44.61.75,1.29.94,2.02.19.73.29,1.54.29,2.43v1.31ZM706.71,16.12v-.18c0-.83-.15-1.47-.45-1.93-.3-.46-.91-.69-1.81-.69s-1.46.23-1.77.7c-.31.46-.46,1.1-.46,1.92v.18h4.5Z"/>
    <polygon class="cls-8" points="603.05 27.67 603.52 27.67 603.52 30.91 605.07 30.91 605.07 31.3 603.05 31.3 603.05 27.67"/>
    <path class="cls-8" d="M608.81,29.45c0,1.24-.76,1.91-1.68,1.91s-1.63-.75-1.63-1.85.71-1.9,1.68-1.9,1.63.76,1.63,1.84M606,29.5c0,.78.42,1.47,1.16,1.47s1.16-.68,1.16-1.51c0-.73-.38-1.48-1.16-1.48s-1.17.72-1.17,1.51"/>
    <path class="cls-8" d="M612.28,31.19c-.17.09-.52.17-.96.17-1.02,0-1.79-.64-1.79-1.84s.77-1.91,1.89-1.91c.45,0,.74.1.86.16l-.12.38c-.17-.09-.43-.15-.73-.15-.85,0-1.42.54-1.42,1.5,0,.89.51,1.46,1.39,1.46.29,0,.58-.06.77-.15l.09.38Z"/>
    <path class="cls-8" d="M613.82,30.16l-.38,1.14h-.48l1.24-3.63h.56l1.24,3.63h-.5l-.39-1.14h-1.29ZM615.01,29.79l-.36-1.04c-.08-.24-.13-.45-.19-.66h-.01c-.05.21-.11.44-.18.66l-.35,1.05h1.1Z"/>
    <polygon class="cls-8" points="616.85 27.67 617.32 27.67 617.32 30.91 618.88 30.91 618.88 31.3 616.85 31.3 616.85 27.67"/>
    <path class="cls-8" d="M621.68,30.16l-.38,1.14h-.48l1.24-3.63h.56l1.24,3.63h-.5l-.39-1.14h-1.29ZM622.88,29.79l-.36-1.04c-.08-.24-.13-.45-.19-.66h-.01c-.05.21-.11.44-.18.66l-.35,1.05h1.1Z"/>
    <path class="cls-8" d="M624.72,27.72c.23-.04.52-.07.9-.07.46,0,.8.11,1.02.3.19.17.32.44.32.76s-.1.59-.28.77c-.25.26-.65.4-1.11.4-.14,0-.27,0-.38-.03v1.45h-.47v-3.58ZM625.19,29.46c.1.03.23.04.39.04.57,0,.91-.28.91-.77s-.34-.72-.85-.72c-.2,0-.36.02-.44.04v1.41Z"/>
    <path class="cls-8" d="M627.92,27.72c.23-.04.52-.07.9-.07.46,0,.8.11,1.02.3.19.17.32.44.32.76s-.1.59-.28.77c-.25.26-.65.4-1.11.4-.14,0-.27,0-.38-.03v1.45h-.47v-3.58ZM628.39,29.46c.1.03.23.04.39.04.57,0,.91-.28.91-.77s-.34-.72-.85-.72c-.2,0-.36.02-.44.04v1.41Z"/>
    <path class="cls-8" d="M631.11,27.72c.24-.04.58-.08.9-.08.5,0,.83.1,1.05.3.18.16.28.41.28.69,0,.47-.3.79-.68.92v.02c.27.1.44.35.53.73.12.5.2.86.28,1h-.48c-.06-.11-.14-.41-.24-.87-.11-.5-.31-.69-.73-.71h-.44v1.57h-.47v-3.58ZM631.58,29.37h.48c.5,0,.82-.27.82-.69,0-.47-.34-.67-.83-.67-.23,0-.38.02-.46.04v1.32Z"/>
    <path class="cls-8" d="M637.46,29.45c0,1.24-.76,1.91-1.68,1.91s-1.63-.75-1.63-1.85.71-1.9,1.68-1.9,1.63.76,1.63,1.84M634.64,29.5c0,.78.42,1.47,1.16,1.47s1.16-.68,1.16-1.51c0-.73-.38-1.48-1.16-1.48s-1.17.72-1.17,1.51"/>
    <path class="cls-8" d="M639.19,31.3l-1.19-3.63h.51l.56,1.79c.15.49.29.93.39,1.35h.01c.1-.42.25-.88.41-1.35l.61-1.79h.5l-1.3,3.63h-.52Z"/>
    <polygon class="cls-8" points="643.6 29.6 642.2 29.6 642.2 30.91 643.77 30.91 643.77 31.3 641.73 31.3 641.73 27.67 643.69 27.67 643.69 28.07 642.2 28.07 642.2 29.21 643.6 29.21 643.6 29.6"/>
    <path class="cls-8" d="M644.71,27.73c.29-.05.62-.08,1-.08.67,0,1.15.16,1.47.45.33.3.52.72.52,1.3s-.19,1.08-.52,1.41c-.34.34-.9.52-1.61.52-.34,0-.61-.02-.85-.04v-3.56ZM645.18,30.93c.12.02.29.02.47.02,1.01,0,1.54-.56,1.54-1.54,0-.86-.48-1.4-1.47-1.4-.24,0-.43.02-.55.05v2.87Z"/>
    <path class="cls-8" d="M650,27.72c.23-.04.52-.07.9-.07.46,0,.8.11,1.02.3.19.17.32.44.32.76s-.1.59-.28.77c-.25.26-.65.4-1.11.4-.14,0-.27,0-.38-.03v1.45h-.47v-3.58ZM650.46,29.46c.1.03.23.04.39.04.57,0,.91-.28.91-.77s-.34-.72-.85-.72c-.2,0-.36.02-.44.04v1.41Z"/>
    <polygon class="cls-8" points="653.19 27.67 653.66 27.67 653.66 30.91 655.21 30.91 655.21 31.3 653.19 31.3 653.19 27.67"/>
    <path class="cls-8" d="M656.34,27.67v2.15c0,.81.36,1.15.85,1.15.53,0,.88-.35.88-1.15v-2.15h.47v2.12c0,1.12-.59,1.57-1.37,1.57-.74,0-1.3-.42-1.3-1.55v-2.13h.47Z"/>
    <path class="cls-8" d="M662.74,29.71c-.03-.5-.06-1.12-.06-1.57h-.01c-.13.42-.28.88-.46,1.38l-.64,1.76h-.35l-.59-1.73c-.17-.52-.31-.98-.41-1.41h-.01c-.01.45-.04,1.05-.07,1.6l-.1,1.55h-.45l.25-3.63h.6l.62,1.75c.15.45.27.84.36,1.22h.01c.1-.36.23-.76.39-1.22l.65-1.75h.6l.23,3.63h-.46l-.09-1.59Z"/>
    <path class="cls-8" d="M664.34,27.73c.2-.05.53-.08.86-.08.47,0,.77.08.99.26.19.14.31.35.31.64,0,.35-.24.66-.61.8v.02c.34.08.75.36.75.9,0,.31-.12.55-.31.73-.25.23-.66.34-1.25.34-.32,0-.57-.02-.73-.04v-3.56ZM664.81,29.21h.43c.49,0,.78-.26.78-.61,0-.42-.32-.59-.79-.59-.21,0-.34.02-.41.03v1.17ZM664.81,30.94c.1.02.23.02.39.02.48,0,.93-.18.93-.71,0-.49-.43-.7-.94-.7h-.39v1.38Z"/>
    <polygon class="cls-8" points="669.47 29.6 668.06 29.6 668.06 30.91 669.63 30.91 669.63 31.3 667.59 31.3 667.59 27.67 669.55 27.67 669.55 28.07 668.06 28.07 668.06 29.21 669.47 29.21 669.47 29.6"/>
    <path class="cls-8" d="M670.57,27.72c.24-.04.58-.08.9-.08.5,0,.83.1,1.05.3.18.16.28.41.28.69,0,.47-.3.79-.68.92v.02c.27.1.44.35.53.73.12.5.2.86.28,1h-.48c-.06-.11-.14-.41-.24-.87-.11-.5-.31-.69-.73-.71h-.44v1.57h-.47v-3.58ZM671.04,29.37h.48c.5,0,.82-.27.82-.69,0-.47-.34-.67-.83-.67-.23,0-.38.02-.46.04v1.32Z"/>
    <path class="cls-8" d="M673.74,30.73c.21.13.51.24.83.24.48,0,.76-.25.76-.62,0-.33-.19-.53-.68-.72-.59-.21-.96-.53-.96-1.03,0-.56.47-.98,1.17-.98.36,0,.64.09.79.18l-.13.38c-.11-.07-.35-.17-.68-.17-.5,0-.68.3-.68.54,0,.34.22.5.72.7.61.24.92.53.92,1.06,0,.56-.41,1.05-1.27,1.05-.35,0-.73-.11-.92-.24l.12-.39Z"/>
    <path class="cls-8" d="M710.29,7.51c-.9,0-1.63.73-1.63,1.63s.73,1.63,1.63,1.63,1.63-.73,1.63-1.63-.73-1.63-1.63-1.63M710.29,10.53c-.77,0-1.39-.62-1.39-1.39s.62-1.39,1.39-1.39,1.39.62,1.39,1.39-.62,1.39-1.39,1.39"/>
    <path class="cls-8" d="M710.44,9.18h0c.15-.06.28-.19.28-.38,0-.12-.04-.22-.12-.28-.09-.08-.22-.12-.43-.12-.13,0-.27.01-.36.03v1.46h.19v-.64h.18c.17,0,.26.08.3.29.04.18.07.31.1.35h.2c-.03-.06-.06-.2-.11-.41-.03-.15-.1-.26-.21-.3M710.2,9.1h-.19v-.54s.1-.01.19-.01c.2,0,.34.08.34.27,0,.17-.13.28-.33.28"/>
    <path class="cls-33" d="M592.28,11.08c-2.11-2.11-5.01-3.43-8.23-3.47h-11.99v11.98c.04,3.22,1.35,6.12,3.47,8.24,2.15,2.14,5.11,3.47,8.37,3.47s6.23-1.33,8.37-3.47c2.14-2.14,3.47-5.1,3.47-8.37s-1.33-6.23-3.47-8.37M583.91,28.77c-5.13,0-9.31-4.18-9.31-9.31v-9.31h9.31c5.13,0,9.31,4.18,9.31,9.31s-4.18,9.31-9.31,9.31"/>
    <path class="cls-8" d="M588.68,14.69c-1.2-1.2-2.85-1.95-4.68-1.97h-6.82v6.81c.02,1.83.77,3.49,1.97,4.69,1.22,1.22,2.91,1.97,4.76,1.97s3.55-.75,4.77-1.97c1.22-1.22,1.97-2.91,1.97-4.76s-.75-3.55-1.97-4.77"/>
  </g>
  <g>
    <path class="cls-28" d="M334.35,3.74l4.63,2.67-18.76,10.83v-5.35c0-.52.28-1,.73-1.26l11.95-6.9c.45-.26,1-.26,1.45,0"/>
    <path class="cls-28" d="M347.02,11.89v2.26l-24.12,13.93-1.95-1.13c-.45-.26-.73-.74-.73-1.26v-2.26l24.12-13.93,1.96,1.13c.45.26.73.74.73,1.26"/>
    <path class="cls-28" d="M346.3,26.95l-11.95,6.9c-.45.26-1,.26-1.45,0l-4.63-2.67,18.76-10.83v5.35c0,.52-.28,1-.73,1.26"/>
    <path class="cls-14" d="M344.16,33.52l-4.63-2.67,18.76-10.83v5.35c0,.52-.28,1-.73,1.26l-11.95,6.9c-.45.26-1,.26-1.45,0"/>
    <path class="cls-14" d="M331.48,25.36v-2.26l24.12-13.93,1.95,1.13c.45.26.73.74.73,1.26v2.26l-24.12,13.93-1.96-1.13c-.45-.26-.73-.74-.73-1.26"/>
    <path class="cls-14" d="M332.21,10.31l11.95-6.9c.45-.26,1-.26,1.45,0l4.63,2.67-18.76,10.83v-5.35c0-.52.28-1,.73-1.26"/>
    <polygon class="cls-12" points="365.44 10.87 368.65 10.87 368.65 20.58 370.88 19.49 370.88 10.87 374.09 10.87 374.09 8.71 365.44 8.71 365.44 10.87"/>
    <polygon class="cls-12" points="407.23 10.87 410.44 10.87 410.44 20.58 412.67 19.49 412.67 10.87 415.88 10.87 415.88 8.71 407.23 8.71 407.23 10.87"/>
    <path class="cls-12" d="M383.14,16.01c.5-.32.88-.78,1.15-1.36.27-.59.41-1.27.41-2.04s-.14-1.46-.41-2.05c-.27-.58-.65-1.04-1.14-1.36-.49-.32-1.06-.48-1.72-.48h-5.17v11.86h2.22v-4.09h1.73l2.28,4.09h2.69l-2.5-4.33c.16-.06.31-.14.45-.24M378.49,11.07h2.77c.23,0,.44.06.61.19.17.12.31.31.4.54.1.23.14.5.14.81,0,.3-.05.57-.15.8-.1.23-.23.41-.4.54-.17.12-.37.19-.6.19h-2.77v-3.06Z"/>
    <path class="cls-29" d="M449.79,16.01c.49-.32.88-.78,1.15-1.36.27-.59.41-1.27.41-2.04s-.14-1.46-.41-2.04c-.27-.59-.65-1.04-1.14-1.36-.49-.32-1.06-.48-1.71-.48h-5.17v11.87h2.22v-4.09h1.73l2.28,4.09h2.7l-2.5-4.34c.16-.07.31-.14.45-.24M445.13,11.07h2.77c.23,0,.43.06.61.19.17.12.31.3.4.54.1.23.14.5.14.8,0,.3-.05.57-.15.8-.1.23-.23.41-.4.54-.17.13-.37.19-.6.19h-2.77v-3.06Z"/>
    <path class="cls-12" d="M393.76,16.27c0,.67-.19,1.19-.58,1.57-.39.37-.93.56-1.63.56s-1.24-.19-1.62-.56c-.39-.37-.58-.89-.58-1.57v-7.55l-2.35,1.11v6.39c0,.92.18,1.71.53,2.36.35.66.87,1.15,1.56,1.49.68.34,1.5.51,2.47.51s1.78-.17,2.47-.51c.68-.34,1.2-.84,1.56-1.49.36-.65.54-1.44.54-2.36v-7.5l-2.35,1.11v6.44Z"/>
    <path class="cls-12" d="M404.28,14.18c-.5-.2-1.13-.38-1.87-.52-.03,0-.06-.01-.09-.02-.03,0-.06-.01-.09-.02-.02,0-.04-.01-.06-.01-.02,0-.04,0-.07-.01-.52-.1-.92-.2-1.21-.29-.29-.09-.53-.24-.72-.43-.19-.19-.29-.46-.29-.79h0c0-.41.19-.72.56-.94.38-.22.9-.33,1.59-.33.45,0,.93.09,1.43.26.49.17.97.41,1.42.72l.94-1.86c-.38-.26-.78-.47-1.2-.65-.42-.18-.85-.32-1.3-.42-.44-.1-.87-.14-1.29-.14-.92,0-1.71.14-2.36.42-.65.28-1.14.69-1.48,1.22-.34.54-.51,1.18-.51,1.93h0c0,.86.18,1.51.54,1.97.36.46.8.78,1.32.97.52.18,1.18.34,1.96.46l.18.02s.03,0,.04,0,.03,0,.04.01c.45.07.82.15,1.1.23.29.09.52.22.7.4.18.18.27.43.27.74h0c0,.45-.2.79-.6,1.03-.4.24-.97.36-1.69.36-.63,0-1.24-.1-1.83-.3-.42-.14-.81-.33-1.16-.56l-.86,1.92c.21.14.45.26.69.37.47.21.98.38,1.52.49.54.11.81.17.81.17h.85c.94,0,1.76-.14,2.43-.42.67-.28,1.18-.68,1.54-1.21.35-.53.53-1.16.53-1.9h0c0-.8-.17-1.43-.5-1.88-.34-.46-.75-.78-1.25-.99"/>
    <polygon class="cls-29" points="423.64 16.55 421.04 8.71 417.65 8.71 417.65 20.34 419.99 20.34 419.99 12.24 422.69 20.34 424.59 20.34 427.29 12.08 427.29 20.34 429.63 20.34 429.63 8.71 426.24 8.71 423.64 16.55"/>
    <polygon class="cls-29" points="435.47 8.71 430.7 20.58 433.23 20.58 436.22 12.48 439.21 20.58 441.74 20.58 436.97 8.71 435.47 8.71"/>
    <polygon class="cls-29" points="458.47 14.12 463.34 8.71 460.31 8.71 457.06 12.33 455.68 13.89 455.68 11.88 455.68 8.71 453.46 8.71 453.46 20.58 455.68 20.58 455.68 17.3 455.68 14.2 456.96 15.84 460.69 20.58 463.54 20.58 458.47 14.12"/>
    <path class="cls-21" d="M370.98,25.87h.82v.49c-.04.25-.16.48-.37.7-.21.22-.47.33-.79.33-.44,0-.78-.13-1.02-.4-.36-.39-.54-.95-.54-1.68,0-.77.17-1.34.51-1.71.25-.26.55-.4.91-.4s.64.11.85.34c.21.22.32.51.34.86h.68c-.02-.47-.18-.87-.48-1.19-.36-.39-.82-.58-1.39-.58s-1.05.21-1.45.64c-.44.47-.65,1.15-.65,2.05s.24,1.54.71,2.05c.38.41.87.61,1.48.61.49,0,.9-.17,1.22-.52l.17.52h.48v-2.69h-1.48v.58Z"/>
    <path class="cls-21" d="M374.9,24.43c-.42,0-.77.15-1.05.46-.32.35-.48.78-.48,1.31s.16.97.48,1.31c.29.3.63.46,1.05.46s.77-.15,1.05-.46c.32-.35.48-.78.48-1.31s-.16-.97-.48-1.31c-.28-.31-.63-.46-1.05-.46M375.5,27.15c-.17.18-.37.28-.6.28s-.43-.09-.6-.28c-.21-.22-.31-.54-.31-.95s.11-.73.34-.98c.15-.16.34-.25.57-.25s.42.08.57.25c.23.24.34.57.34.98s-.1.72-.31.95"/>
    <polygon class="cls-21" points="378.65 27.21 377.63 24.49 377 24.49 378.37 27.97 378.94 27.97 380.3 24.49 379.67 24.49 378.65 27.21"/>
    <path class="cls-21" d="M383.03,27.24c-.11.12-.3.18-.57.18s-.48-.09-.65-.28c-.19-.2-.28-.52-.28-.95h2.3c0-.59-.13-1.03-.4-1.31-.29-.3-.63-.46-1.02-.46s-.76.14-1.02.43c-.32.35-.48.79-.48,1.34s.15.99.45,1.31c.28.31.65.46,1.11.46s.78-.13,1.02-.4c.17-.18.29-.46.37-.83h-.62c0,.18-.07.35-.2.49M381.81,25.19c.15-.16.34-.24.57-.24.25,0,.44.07.57.21.15.16.23.35.23.55h-1.62c.04-.2.12-.38.26-.52"/>
    <path class="cls-21" d="M385.34,25.35v-.86h-.57v3.42h.57v-1.74c.07-.25.22-.48.43-.7.25-.26.51-.4.79-.4.13,0,.24.01.31.03v-.67c-.51,0-.92.16-1.22.49-.11.12-.22.27-.31.43"/>
    <path class="cls-21" d="M389.15,24.43c-.38,0-.74.23-1.08.67v-.61h-.57v3.42h.57v-1.71c0-.35.14-.67.43-.98.19-.2.38-.31.57-.31.21,0,.37.06.48.18.11.12.17.28.17.46v2.35h.57v-2.54c0-.22-.08-.42-.23-.58-.23-.25-.53-.37-.91-.37"/>
    <path class="cls-21" d="M394.8,24.43c-.44,0-.78.21-1.02.64-.06-.12-.13-.23-.23-.33-.19-.2-.46-.31-.82-.31-.32,0-.61.19-.85.58v-.52h-.57v3.42h.57v-2.14c0-.16.09-.34.26-.52.15-.16.33-.25.54-.25.19,0,.33.05.43.15.11.12.17.24.17.36v2.38h.57v-2.17c0-.14.07-.3.23-.46.17-.18.39-.28.65-.28.15,0,.28.06.4.18.07.08.11.18.11.3v2.41h.57v-2.54c0-.24-.1-.47-.28-.67-.17-.18-.41-.28-.71-.28"/>
    <path class="cls-21" d="M398.87,27.24c-.11.12-.3.18-.57.18s-.48-.09-.65-.28c-.19-.2-.28-.52-.28-.95h2.3c0-.59-.13-1.03-.4-1.31-.29-.3-.63-.46-1.02-.46s-.76.14-1.02.43c-.32.35-.48.79-.48,1.34s.15.99.45,1.31c.28.31.65.46,1.11.46s.78-.13,1.02-.4c.17-.18.29-.46.37-.83h-.62c0,.18-.07.35-.2.49M397.65,25.19c.15-.16.34-.24.57-.24.25,0,.44.07.57.21.15.16.23.35.23.55h-1.62c.04-.2.12-.38.26-.52"/>
    <path class="cls-21" d="M402.28,24.43c-.38,0-.74.23-1.08.67v-.61h-.57v3.42h.57v-1.71c0-.35.14-.67.43-.98.19-.2.38-.31.57-.31.21,0,.37.06.48.18.11.12.17.28.17.46v2.35h.57v-2.54c0-.22-.08-.42-.23-.58-.23-.25-.53-.37-.91-.37"/>
    <path class="cls-21" d="M405.41,27.3c-.1-.1-.14-.21-.14-.34v-1.98h.97v-.49h-.97v-1.19h-.57v1.19h-.68v.49h.68v2.05c0,.25.09.47.28.67.17.18.44.28.82.28.25,0,.47-.06.68-.18v-.58c-.21.14-.44.21-.71.21-.17,0-.29-.04-.37-.12"/>
    <polygon class="cls-21" points="410.28 25.47 412.58 25.47 412.58 24.89 410.28 24.89 410.28 23.27 412.75 23.27 412.75 22.69 409.62 22.69 409.62 27.91 412.89 27.91 412.89 27.33 410.28 27.33 410.28 25.47"/>
    <path class="cls-21" d="M415.51,24.43c-.38,0-.74.23-1.08.67v-.61h-.57v3.42h.57v-1.71c0-.35.14-.67.43-.98.19-.2.38-.31.57-.31.21,0,.37.06.48.18.11.12.17.28.17.46v2.35h.57v-2.54c0-.22-.08-.42-.23-.58-.23-.25-.53-.37-.91-.37"/>
    <path class="cls-21" d="M419.92,24.92c-.23-.35-.55-.52-.97-.52-.34,0-.63.13-.88.4-.3.33-.45.79-.45,1.41,0,.57.17,1.04.51,1.41.23.25.54.37.94.37.36,0,.64-.16.85-.49v.43h.57v-5.22h-.57v2.23ZM419.6,27.18c-.15.16-.34.25-.57.25-.19,0-.35-.07-.48-.21-.21-.22-.31-.56-.31-1.01s.09-.8.28-1.01c.15-.16.32-.25.51-.25.21,0,.39.08.54.25.23.24.34.58.34,1.01s-.1.75-.31.98"/>
    <path class="cls-21" d="M422.87,24.43c-.42,0-.77.15-1.05.46-.32.35-.48.78-.48,1.31s.16.97.48,1.31c.29.3.63.46,1.05.46s.77-.15,1.05-.46c.32-.35.48-.78.48-1.31s-.16-.97-.48-1.31c-.28-.31-.63-.46-1.05-.46M423.47,27.15c-.17.18-.37.28-.6.28s-.43-.09-.6-.28c-.21-.22-.31-.54-.31-.95s.11-.73.34-.98c.15-.16.34-.25.57-.25s.42.08.57.25c.23.24.34.57.34.98s-.1.72-.31.95"/>
    <path class="cls-21" d="M425.86,25.35v-.86h-.57v3.42h.57v-1.74c.07-.25.22-.48.43-.7.25-.26.51-.4.79-.4.13,0,.24.01.31.03v-.67c-.51,0-.92.16-1.22.49-.11.12-.22.27-.31.43"/>
    <path class="cls-21" d="M430.04,26.14c-.17-.06-.38-.12-.62-.18-.4-.1-.63-.19-.71-.28-.06-.06-.09-.13-.09-.21,0-.12.05-.23.14-.33.12-.12.27-.18.46-.18.3,0,.51.06.62.18.06.06.1.16.11.3h.57c0-.24-.1-.47-.28-.67-.21-.23-.54-.34-.99-.34-.42,0-.74.12-.97.37-.17.18-.26.41-.26.67,0,.2.09.4.26.58.1.1.25.18.45.24.17.06.43.13.77.21.17.04.29.1.37.18.1.1.14.19.14.28,0,.12-.04.22-.11.31-.11.12-.33.18-.65.18-.27,0-.46-.07-.6-.21-.08-.08-.12-.21-.14-.4h-.57c0,.3.1.56.28.76.23.25.58.37,1.05.37s.82-.12,1.05-.37c.19-.2.28-.43.28-.67,0-.23-.08-.42-.23-.58-.08-.08-.19-.15-.34-.21"/>
    <path class="cls-21" d="M433.59,27.24c-.11.12-.3.18-.57.18s-.48-.09-.65-.28c-.19-.2-.28-.52-.28-.95h2.3c0-.59-.13-1.03-.4-1.31-.29-.3-.63-.46-1.02-.46s-.76.14-1.02.43c-.32.35-.48.79-.48,1.34s.15.99.45,1.31c.28.31.65.46,1.11.46s.78-.13,1.02-.4c.17-.18.29-.46.37-.83h-.62c0,.18-.07.35-.2.49M432.37,25.19c.15-.16.34-.24.57-.24.25,0,.44.07.57.21.15.16.23.35.23.55h-1.62c.04-.2.12-.38.26-.52"/>
    <path class="cls-21" d="M437.6,24.92c-.23-.35-.55-.52-.97-.52-.34,0-.63.13-.88.4-.3.33-.45.79-.45,1.41,0,.57.17,1.04.51,1.41.23.25.54.37.94.37.36,0,.64-.16.85-.49v.43h.57v-5.22h-.57v2.23ZM437.29,27.18c-.15.16-.34.25-.57.25-.19,0-.35-.07-.48-.21-.21-.22-.31-.56-.31-1.01s.09-.8.28-1.01c.15-.16.32-.25.51-.25.21,0,.39.08.54.25.23.24.34.58.34,1.01s-.1.75-.31.98"/>
    <path class="cls-21" d="M445.11,23.3c-.4-.43-.88-.64-1.45-.64s-1.05.21-1.45.64c-.45.49-.68,1.16-.68,2.02s.23,1.53.68,2.02c.4.43.88.64,1.45.64.36,0,.72-.1,1.08-.31l.48.61.43-.43-.45-.58c.4-.53.6-1.18.6-1.95,0-.86-.23-1.53-.68-2.02M444.77,26.75l-.62-.79-.43.4.62.83c-.17.14-.4.21-.68.21-.36,0-.68-.15-.97-.46-.32-.34-.48-.89-.48-1.62s.16-1.27.48-1.62c.28-.3.61-.46.97-.46s.68.15.97.46c.32.35.48.89.48,1.62,0,.63-.11,1.11-.34,1.44"/>
    <path class="cls-21" d="M449.06,26.23c0,.33-.14.64-.43.95-.19.2-.41.31-.65.31-.17,0-.3-.05-.4-.15-.11-.12-.17-.3-.17-.55v-2.29h-.57v2.51c0,.29.09.52.26.7.17.18.45.28.85.28.43,0,.8-.23,1.11-.67v.61h.57v-3.42h-.57v1.74Z"/>
    <path class="cls-21" d="M453.22,25.47c0-.26-.1-.5-.28-.7-.21-.22-.55-.33-1.02-.33-.4,0-.7.11-.91.33-.19.2-.31.45-.37.73h.62c.04-.14.1-.25.17-.34.11-.12.3-.18.57-.18.21,0,.37.06.48.18.11.12.17.27.17.43-.1.06-.27.12-.51.18-.17.06-.37.11-.6.15-.34.06-.61.19-.8.4-.17.18-.26.42-.26.7,0,.25.09.46.26.64.19.2.46.31.83.31.43,0,.79-.15,1.08-.46,0,.18.04.31.11.4h.68c-.15-.12-.23-.3-.23-.52v-1.92ZM452.65,26.78c-.02.06-.1.16-.23.31-.21.22-.47.33-.79.33-.19,0-.31-.03-.37-.09-.09-.1-.14-.22-.14-.37,0-.12.05-.23.14-.33.08-.08.19-.14.34-.18.17-.04.42-.1.74-.18.1-.02.2-.05.31-.09v.61Z"/>
    <rect class="cls-21" x="456.07" y="24.49" width=".57" height="3.42"/>
    <rect class="cls-21" x="456.07" y="22.72" width=".57" height=".79"/>
    <path class="cls-21" d="M458.68,27.3c-.1-.1-.14-.21-.14-.34v-1.98h.97v-.49h-.97v-1.19h-.57v1.19h-.68v.49h.68v2.05c0,.25.09.47.28.67.17.18.44.28.82.28.25,0,.47-.06.68-.18v-.58c-.21.14-.44.21-.71.21-.17,0-.29-.04-.37-.12"/>
    <path class="cls-21" d="M462.75,24.46l-1.02,2.72-1.02-2.72h-.62l1.36,3.51c-.04.14-.09.25-.17.34-.08.08-.16.12-.26.12-.17,0-.33-.04-.48-.12v.58c.07.08.25.12.51.12.23,0,.42-.08.57-.24.11-.12.23-.34.34-.64l1.42-3.67h-.62Z"/>
    <path class="cls-21" d="M454.92,22.69h-.57v4.66c0,.31.25.57.57.57h.42v-.57h-.42v-4.66Z"/>
  </g>
  <g>
    <g>
      <path class="cls-23" d="M476.96,13.06c-.16.61-.74,3.17.89,5.27.18.23.37.43.56.61-4.07-1.49-5.77-6.08-5.77-6.08,1.1-4.03,4.86-7.01,9.35-7.3-.34.49-.88,1.27-1.55,2.22-2.69,3.77-3.16,4.11-3.48,5.29Z"/>
      <path class="cls-7" d="M485.93,18.95c-1.98,4.97-6.36,6.08-6.36,6.08-5.37-1.48-8.3-7.18-6.93-12.16,0,0,1.69,4.59,5.77,6.08t0,0c1.65,1.53,3.81,1.5,3.96,1.5,1.61-.05,2.8-.8,3.56-1.5Z"/>
      <path class="cls-11" d="M491.82,17.99c-1.34,4.96-6.76,8.55-12.24,7.04,0,0,4.38-1.11,6.36-6.08.61-.56.95-1.09,1.02-1.2,1.11-1.78.86-3.64.79-4.08-.07-.42-.17-.77-.4-1.2,3.71,2.26,4.47,5.52,4.47,5.52Z"/>
      <path class="cls-20" d="M491.82,17.99s-.75-3.26-4.47-5.52c0,0,0,0,0,0-.44-.86-1.34-2.04-3.32-4.75-.69-.94-1.24-1.69-1.56-2.13,1.1.03,3.21.24,5.26,1.62,3.29,2.21,5.21,6.64,4.09,10.78Z"/>
    </g>
    <g>
      <path class="cls-23" d="M504.23,6.2h1.82l3.88,14.85,3.35-14.85h2.76l-4.62,18.94h-2.71l-3.49-13.23-3.65,13.23h-2.71l-4.62-18.94h2.76l3.35,14.85,3.88-14.85Z"/>
      <path class="cls-23" d="M519.19,25.14h-2.66V6.2h2.66v18.94Z"/>
      <path class="cls-23" d="M526.56,6.26h2.27l6.98,18.94h-2.87l-5.25-15.28-5.25,15.28h-2.87l6.98-18.94ZM522.79,18.51h9.96v2.53h-9.96v-2.53Z"/>
      <path class="cls-23" d="M536.56,6.2h2.66v18.94h-2.66V6.2ZM537.93,15.27h6.06c.57,0,1.08-.13,1.51-.4.43-.27.77-.65,1.01-1.15.24-.49.36-1.06.36-1.71s-.12-1.22-.36-1.72c-.24-.49-.58-.88-1.01-1.15-.43-.27-.94-.41-1.51-.41h-6.06v-2.53h5.96c1.13,0,2.12.24,2.98.72.86.48,1.53,1.16,2,2.04.47.88.71,1.89.71,3.05s-.24,2.17-.71,3.04c-.47.87-1.14,1.55-2,2.03-.86.48-1.85.72-2.98.72h-5.96v-2.53Z"/>
      <path class="cls-23" d="M553.52,25.11c-.82-.17-1.58-.43-2.29-.78-.71-.35-1.37-.78-1.99-1.3l1.65-2.03c.72.63,1.52,1.09,2.38,1.41.87.31,1.81.47,2.83.47,1.37,0,2.44-.25,3.19-.76.76-.51,1.13-1.23,1.13-2.16h0c0-.67-.17-1.2-.51-1.58-.34-.39-.79-.67-1.33-.86-.54-.19-1.24-.36-2.1-.51-.03,0-.05-.01-.08-.01s-.06,0-.08-.01l-.2-.04c-1.27-.22-2.3-.46-3.09-.74-.79-.27-1.47-.77-2.04-1.5-.56-.72-.85-1.76-.85-3.09h0c0-1.19.26-2.19.79-3.01.53-.83,1.29-1.46,2.3-1.89,1.01-.43,2.22-.65,3.63-.65.68,0,1.34.07,2,.22.66.15,1.3.37,1.94.66.64.29,1.27.66,1.88,1.1l-1.51,2.11c-.72-.53-1.44-.93-2.16-1.19-.72-.26-1.43-.4-2.16-.4-1.29,0-2.3.26-3.01.77-.72.52-1.07,1.25-1.07,2.19h0c0,.66.18,1.18.55,1.55.37.37.83.65,1.38.83.55.18,1.32.36,2.3.55.03,0,.07.02.1.02.03,0,.06.01.1.02.04,0,.09.02.14.03.05,0,.1.02.14.03,1.15.23,2.1.51,2.87.83.77.32,1.41.84,1.93,1.56.52.72.77,1.7.77,2.94v.03c0,1.15-.27,2.14-.82,2.96-.55.82-1.34,1.45-2.38,1.88-1.04.43-2.29.64-3.76.64-.91,0-1.78-.09-2.59-.26Z"/>
    </g>
    <g>
      <path class="cls-11" d="M473.82,28.81h.28l.59,2.25.51-2.25h.42l-.7,2.86h-.41l-.53-2-.55,2h-.41l-.7-2.86h.42l.51,2.25.59-2.25Z"/>
      <path class="cls-11" d="M476.63,28.81h.34l1.06,2.86h-.43l-.79-2.31-.79,2.31h-.43l1.06-2.86ZM476.06,30.66h1.51v.38h-1.51v-.38Z"/>
      <path class="cls-11" d="M477.98,28.81h2.02v.38h-2.02v-.38ZM478.79,29.04h.4v2.63h-.4v-2.63Z"/>
      <path class="cls-11" d="M480.4,28.81h.4v2.86h-.4v-2.86ZM480.6,28.81h1.65v.38h-1.65v-.38ZM480.6,30.06h1.43v.38h-1.43v-.38ZM480.6,31.29h1.65v.38h-1.65v-.38Z"/>
      <path class="cls-11" d="M482.81,28.8h.4v2.87h-.4v-2.87ZM482.99,30.08h.98c.08,0,.14-.02.2-.06s.1-.09.14-.16.05-.15.05-.23-.02-.17-.05-.23c-.03-.07-.08-.12-.14-.16-.06-.04-.13-.06-.2-.06h-.98v-.38h.96c.17,0,.31.03.44.1.13.07.22.17.29.29.07.13.1.27.1.43s-.03.31-.1.43c-.07.13-.17.22-.29.29-.13.07-.27.1-.43.1h-.96v-.38ZM483.77,30.37l.4-.09.73,1.39h-.48l-.66-1.3Z"/>
      <path class="cls-11" d="M486.93,31.67h-.4v-2.86h.4v2.86Z"/>
      <path class="cls-11" d="M487.64,28.81h.36l1.4,2.21-.05.05v-2.27h.4v2.86h-.37l-1.4-2.18.05-.05v2.23h-.4v-2.86Z"/>
      <path class="cls-11" d="M490.46,28.81h.4v2.86h-.4v-2.86ZM490.73,31.29h.65c.21,0,.38-.05.49-.16.12-.11.17-.26.17-.46v-.84c0-.2-.06-.35-.17-.46-.12-.11-.28-.16-.49-.16h-.65v-.38h.64c.23,0,.43.04.59.12.16.08.29.2.37.35.09.15.13.34.13.56v.81c0,.22-.04.4-.13.56-.09.15-.21.27-.37.35-.16.08-.36.12-.59.12h-.63v-.38Z"/>
      <path class="cls-11" d="M493.45,31.58c-.15-.08-.27-.2-.34-.36s-.12-.35-.12-.58v-1.83h.4v1.84c0,.21.05.37.16.48.11.11.25.17.45.17s.34-.06.45-.17.16-.28.16-.48v-1.84h.4v1.83c0,.22-.04.42-.12.58-.08.16-.19.28-.34.36-.15.08-.33.13-.55.13s-.39-.04-.54-.13Z"/>
      <path class="cls-11" d="M496.06,31.66c-.12-.03-.24-.07-.35-.12-.11-.05-.21-.12-.3-.2l.25-.31c.11.09.23.17.36.21s.27.07.43.07c.21,0,.37-.04.48-.12s.17-.19.17-.33h0c0-.1-.03-.18-.08-.24-.05-.06-.12-.1-.2-.13-.08-.03-.19-.05-.32-.08,0,0,0,0-.01,0s0,0-.01,0h-.03c-.19-.04-.35-.08-.47-.12-.12-.04-.22-.12-.31-.23-.09-.11-.13-.27-.13-.47h0c0-.18.04-.33.12-.46.08-.13.2-.22.35-.29s.34-.1.55-.1c.1,0,.2.01.3.03.1.02.2.06.29.1.1.04.19.1.28.17l-.23.32c-.11-.08-.22-.14-.33-.18-.11-.04-.22-.06-.33-.06-.2,0-.35.04-.46.12-.11.08-.16.19-.16.33h0c0,.1.03.18.08.23.06.06.13.1.21.13.08.03.2.05.35.08,0,0,.01,0,.01,0,0,0,0,0,.01,0,0,0,.01,0,.02,0,0,0,.02,0,.02,0,.17.04.32.08.43.13.12.05.21.13.29.24.08.11.12.26.12.44h0c0,.18-.04.33-.12.45-.08.12-.2.22-.36.28s-.35.1-.57.1c-.14,0-.27-.01-.39-.04Z"/>
      <path class="cls-11" d="M497.69,28.81h2.02v.38h-2.02v-.38ZM498.5,29.04h.4v2.63h-.4v-2.63Z"/>
      <path class="cls-11" d="M500.1,28.8h.4v2.87h-.4v-2.87ZM500.28,30.08h.98c.08,0,.14-.02.2-.06s.1-.09.14-.16.05-.15.05-.23-.02-.17-.05-.23c-.03-.07-.08-.12-.14-.16-.06-.04-.13-.06-.2-.06h-.98v-.38h.96c.17,0,.31.03.44.1.13.07.22.17.29.29.07.13.1.27.1.43s-.03.31-.1.43c-.07.13-.17.22-.29.29-.13.07-.27.1-.43.1h-.96v-.38ZM501.06,30.37l.4-.09.73,1.39h-.48l-.66-1.3Z"/>
      <path class="cls-11" d="M503.57,30.51v1.16h-.4v-1.16l-.87-1.7h.45l.63,1.29.63-1.29h.45l-.87,1.7Z"/>
      <path class="cls-11" d="M506.61,28.81h.34l1.06,2.86h-.43l-.79-2.31-.79,2.31h-.43l1.06-2.86ZM506.04,30.66h1.51v.38h-1.51v-.38Z"/>
      <path class="cls-11" d="M508.44,28.81h.4v2.86h-.4v-2.86ZM508.64,30.18h.92c.09,0,.16-.02.23-.06.07-.04.12-.1.15-.17.04-.07.05-.16.05-.26s-.02-.19-.05-.26c-.04-.07-.09-.13-.15-.17-.07-.04-.14-.06-.23-.06h-.92v-.38h.9c.17,0,.32.04.45.11s.23.18.3.31c.07.13.11.29.11.46s-.04.33-.11.46-.17.23-.3.31c-.13.07-.28.11-.45.11h-.9v-.38Z"/>
      <path class="cls-11" d="M510.91,28.81h.4v2.86h-.4v-2.86ZM511.12,30.18h.92c.09,0,.16-.02.23-.06.07-.04.12-.1.15-.17.04-.07.05-.16.05-.26s-.02-.19-.05-.26c-.04-.07-.09-.13-.15-.17-.07-.04-.14-.06-.23-.06h-.92v-.38h.9c.17,0,.32.04.45.11s.23.18.3.31c.07.13.11.29.11.46s-.04.33-.11.46-.17.23-.3.31c-.13.07-.28.11-.45.11h-.9v-.38Z"/>
      <path class="cls-11" d="M513.38,28.8h.4v2.87h-.4v-2.87ZM513.56,30.08h.98c.08,0,.14-.02.2-.06s.1-.09.14-.16.05-.15.05-.23-.02-.17-.05-.23c-.03-.07-.08-.12-.14-.16-.06-.04-.13-.06-.2-.06h-.98v-.38h.96c.17,0,.31.03.44.1.13.07.22.17.29.29.07.13.1.27.1.43s-.03.31-.1.43c-.07.13-.17.22-.29.29-.13.07-.27.1-.43.1h-.96v-.38ZM514.34,30.37l.4-.09.73,1.39h-.48l-.66-1.3Z"/>
      <path class="cls-11" d="M516.35,31.57c-.15-.09-.27-.21-.35-.37-.08-.16-.13-.34-.13-.55v-.81c0-.21.04-.4.13-.55.08-.16.2-.28.35-.37.15-.09.33-.13.53-.13s.38.04.53.13c.15.09.27.21.35.37s.13.34.13.55v.81c0,.21-.04.39-.13.55s-.2.28-.35.37c-.15.09-.33.13-.53.13s-.38-.04-.53-.13ZM517.19,31.22c.09-.05.16-.13.21-.23.05-.1.07-.21.07-.34v-.84c0-.13-.02-.24-.07-.34s-.12-.17-.21-.23c-.09-.05-.19-.08-.31-.08s-.22.03-.31.08c-.09.05-.16.13-.21.23s-.07.21-.07.34v.84c0,.13.02.24.07.34.05.1.12.17.21.23s.19.08.31.08.22-.03.31-.08Z"/>
      <path class="cls-11" d="M518.24,28.81h.44l.69,2.25.69-2.25h.44l-.93,2.86h-.38l-.93-2.86Z"/>
      <path class="cls-11" d="M520.93,28.81h.4v2.86h-.4v-2.86ZM521.12,28.81h1.65v.38h-1.65v-.38ZM521.12,30.06h1.43v.38h-1.43v-.38ZM521.12,31.29h1.65v.38h-1.65v-.38Z"/>
      <path class="cls-11" d="M523.34,28.81h.4v2.86h-.4v-2.86ZM523.61,31.29h.65c.21,0,.38-.05.49-.16.12-.11.17-.26.17-.46v-.84c0-.2-.06-.35-.17-.46-.12-.11-.28-.16-.49-.16h-.65v-.38h.64c.23,0,.43.04.59.12.16.08.29.2.37.35.09.15.13.34.13.56v.81c0,.22-.04.4-.13.56-.09.15-.21.27-.37.35-.16.08-.36.12-.59.12h-.63v-.38Z"/>
      <path class="cls-11" d="M526.44,28.81h.4v2.86h-.4v-2.86ZM526.65,30.18h.92c.09,0,.16-.02.23-.06.07-.04.12-.1.15-.17.04-.07.05-.16.05-.26s-.02-.19-.05-.26c-.04-.07-.09-.13-.15-.17-.07-.04-.14-.06-.23-.06h-.92v-.38h.9c.17,0,.32.04.45.11s.23.18.3.31c.07.13.11.29.11.46s-.04.33-.11.46-.17.23-.3.31c-.13.07-.28.11-.45.11h-.9v-.38Z"/>
      <path class="cls-11" d="M528.91,28.81h.4v2.86h-.4v-2.86ZM529.11,31.29h1.64v.38h-1.64v-.38Z"/>
      <path class="cls-11" d="M531.57,31.58c-.15-.08-.27-.2-.34-.36s-.12-.35-.12-.58v-1.83h.4v1.84c0,.21.05.37.16.48.11.11.25.17.45.17s.34-.06.45-.17.16-.28.16-.48v-1.84h.4v1.83c0,.22-.04.42-.12.58-.08.16-.19.28-.34.36-.15.08-.33.13-.55.13s-.39-.04-.54-.13Z"/>
      <path class="cls-11" d="M535.81,28.81h.38v2.86h-.39v-2.15l.02.13-.71,1.62h-.28l-.71-1.58.02-.17v2.15h-.39v-2.86h.38l.84,1.89.84-1.89Z"/>
      <path class="cls-11" d="M536.9,28.81h.4v2.86h-.4v-2.86ZM537.13,31.3h.78c.2,0,.35-.04.45-.12.09-.08.14-.19.14-.33h0c0-.1-.02-.19-.05-.26-.03-.07-.09-.12-.16-.16s-.16-.06-.28-.06h-.87v-.36h.87c.15,0,.26-.03.34-.1.08-.07.11-.17.11-.31s-.04-.25-.13-.32c-.08-.07-.21-.11-.38-.11h-.82v-.37h.89c.19,0,.34.03.46.09.12.06.22.15.28.27.06.12.09.25.09.41,0,.1-.02.19-.06.28s-.1.16-.17.22c-.08.06-.18.1-.29.12.12.02.22.06.3.12.08.07.15.15.19.24.04.1.07.2.07.32h0c0,.16-.03.3-.1.42-.07.12-.17.21-.29.27s-.28.1-.45.1h-.93v-.37Z"/>
      <path class="cls-11" d="M539.5,28.81h.4v2.86h-.4v-2.86ZM539.69,28.81h1.65v.38h-1.65v-.38ZM539.69,30.06h1.43v.38h-1.43v-.38ZM539.69,31.29h1.65v.38h-1.65v-.38Z"/>
      <path class="cls-11" d="M541.91,28.8h.4v2.87h-.4v-2.87ZM542.09,30.08h.98c.08,0,.14-.02.2-.06s.1-.09.14-.16.05-.15.05-.23-.02-.17-.05-.23c-.03-.07-.08-.12-.14-.16-.06-.04-.13-.06-.2-.06h-.98v-.38h.96c.17,0,.31.03.44.1.13.07.22.17.29.29.07.13.1.27.1.43s-.03.31-.1.43c-.07.13-.17.22-.29.29-.13.07-.27.1-.43.1h-.96v-.38ZM542.87,30.37l.4-.09.73,1.39h-.48l-.66-1.3Z"/>
      <path class="cls-11" d="M544.93,31.66c-.12-.03-.24-.07-.35-.12-.11-.05-.21-.12-.3-.2l.25-.31c.11.09.23.17.36.21s.27.07.43.07c.21,0,.37-.04.48-.12s.17-.19.17-.33h0c0-.1-.03-.18-.08-.24-.05-.06-.12-.1-.2-.13-.08-.03-.19-.05-.32-.08,0,0,0,0-.01,0s0,0-.01,0h-.03c-.19-.04-.35-.08-.47-.12-.12-.04-.22-.12-.31-.23-.09-.11-.13-.27-.13-.47h0c0-.18.04-.33.12-.46.08-.13.2-.22.35-.29s.34-.1.55-.1c.1,0,.2.01.3.03.1.02.2.06.29.1.1.04.19.1.28.17l-.23.32c-.11-.08-.22-.14-.33-.18-.11-.04-.22-.06-.33-.06-.2,0-.35.04-.46.12-.11.08-.16.19-.16.33h0c0,.1.03.18.08.23.06.06.13.1.21.13.08.03.2.05.35.08,0,0,.01,0,.01,0,0,0,0,0,.01,0,0,0,.01,0,.02,0,0,0,.02,0,.02,0,.17.04.32.08.43.13.12.05.21.13.29.24.08.11.12.26.12.44h0c0,.18-.04.33-.12.45-.08.12-.2.22-.36.28s-.35.1-.57.1c-.14,0-.27-.01-.39-.04Z"/>
      <path class="cls-11" d="M546.74,28.81h.42v.64l-.42.44v-1.08Z"/>
      <path class="cls-11" d="M548.01,31.66c-.12-.03-.24-.07-.35-.12-.11-.05-.21-.12-.3-.2l.25-.31c.11.09.23.17.36.21s.27.07.43.07c.21,0,.37-.04.48-.12s.17-.19.17-.33h0c0-.1-.03-.18-.08-.24-.05-.06-.12-.1-.2-.13-.08-.03-.19-.05-.32-.08,0,0,0,0-.01,0s0,0-.01,0h-.03c-.19-.04-.35-.08-.47-.12-.12-.04-.22-.12-.31-.23-.09-.11-.13-.27-.13-.47h0c0-.18.04-.33.12-.46.08-.13.2-.22.35-.29s.34-.1.55-.1c.1,0,.2.01.3.03.1.02.2.06.29.1.1.04.19.1.28.17l-.23.32c-.11-.08-.22-.14-.33-.18-.11-.04-.22-.06-.33-.06-.2,0-.35.04-.46.12-.11.08-.16.19-.16.33h0c0,.1.03.18.08.23.06.06.13.1.21.13.08.03.2.05.35.08,0,0,.01,0,.01,0,0,0,0,0,.01,0,0,0,.01,0,.02,0,0,0,.02,0,.02,0,.17.04.32.08.43.13.12.05.21.13.29.24.08.11.12.26.12.44h0c0,.18-.04.33-.12.45-.08.12-.2.22-.36.28s-.35.1-.57.1c-.14,0-.27-.01-.39-.04Z"/>
      <path class="cls-11" d="M550.37,31.57c-.15-.09-.27-.21-.35-.37-.08-.16-.12-.35-.12-.56v-.79c0-.21.04-.4.12-.56.08-.16.2-.29.35-.38.15-.09.32-.13.52-.13.16,0,.32.04.45.11.14.07.25.17.35.3.09.13.16.28.19.45h-.41c-.02-.09-.07-.17-.13-.24-.06-.07-.13-.12-.21-.16-.08-.04-.16-.06-.24-.06-.12,0-.22.03-.31.08-.09.06-.16.14-.2.24-.05.1-.07.22-.07.36v.79c0,.13.02.25.07.35.05.1.12.18.2.24.09.06.19.08.31.08.09,0,.17-.02.25-.05.08-.04.15-.09.2-.16.06-.07.1-.15.13-.25h.41c-.03.17-.1.32-.19.45-.09.13-.21.23-.35.3-.14.07-.29.11-.45.11-.2,0-.37-.04-.52-.13Z"/>
      <path class="cls-11" d="M552.41,28.81h.4v2.86h-.4v-2.86ZM552.66,30.07h1.59v.38h-1.59v-.38ZM554.04,28.81h.4v2.86h-.4v-2.86Z"/>
      <path class="cls-11" d="M555.15,28.81h.4v2.86h-.4v-2.86ZM555.34,28.81h1.65v.38h-1.65v-.38ZM555.34,30.06h1.43v.38h-1.43v-.38ZM555.34,31.29h1.65v.38h-1.65v-.38Z"/>
      <path class="cls-11" d="M559.62,28.81h.38v2.86h-.39v-2.15l.02.13-.71,1.62h-.28l-.71-1.58.02-.17v2.15h-.39v-2.86h.38l.84,1.89.84-1.89Z"/>
      <path class="cls-11" d="M560.7,28.81h.4v2.86h-.4v-2.86ZM560.9,28.81h1.65v.38h-1.65v-.38ZM560.9,30.06h1.43v.38h-1.43v-.38ZM560.9,31.29h1.65v.38h-1.65v-.38Z"/>
    </g>
  </g>
</svg>