<?xml version="1.0" encoding="UTF-8"?>
<svg id="Layer_2" data-name="Layer 2" xmlns="http://www.w3.org/2000/svg" viewBox="0 0 709.18 29.49">
  <defs>
    <style>
      .cls-1 {
        fill: #f29523;
      }

      .cls-2 {
        fill: #f08e22;
      }

      .cls-3 {
        fill: #2babdf;
      }
    </style>
  </defs>
  <g>
    <path class="cls-3" d="M4.85,26.18c-.95,0-1.67-.25-2.17-.74-.5-.5-.74-1.21-.74-2.14V7.69c0-.93.25-1.64.74-2.14.49-.49,1.22-.74,2.17-.74h10.27c.73,0,1.27.18,1.64.55.36.36.55.89.55,1.58s-.18,1.25-.55,1.62c-.36.37-.91.56-1.64.56h-7.85v4.06h7.18c.71,0,1.25.18,1.62.54.37.36.56.9.56,1.61s-.19,1.24-.56,1.61c-.37.36-.91.55-1.62.55h-7.18v4.39h7.85c.73,0,1.27.19,1.64.56.36.37.55.9.55,1.59s-.18,1.24-.55,1.61c-.36.36-.91.55-1.64.55H4.85Z"/>
    <path class="cls-3" d="M20.7,26.45c-.81,0-1.43-.22-1.86-.67-.43-.44-.65-1.07-.65-1.88V7.08c0-.83.23-1.46.7-1.89.46-.43,1.12-.65,1.97-.65.71,0,1.27.14,1.68.41.41.27.79.72,1.14,1.35l6.52,11.7h-1.06l6.48-11.7c.36-.63.75-1.08,1.17-1.35.41-.27.97-.41,1.68-.41.81,0,1.43.22,1.86.65.43.43.65,1.07.65,1.89v16.82c0,.81-.21,1.43-.64,1.88-.42.44-1.05.67-1.88.67s-1.43-.22-1.86-.67c-.43-.44-.65-1.07-.65-1.88v-10.42h.64l-4.88,8.49c-.28.44-.58.78-.89,1-.31.22-.73.33-1.26.33s-.92-.11-1.24-.33c-.32-.22-.62-.56-.88-1l-4.91-8.52h.7v10.46c0,.81-.21,1.43-.64,1.88-.42.44-1.05.67-1.88.67Z"/>
    <path class="cls-2" d="M45.27,26.45c-.89,0-1.58-.25-2.06-.74s-.73-1.19-.73-2.08V7.63c0-.91.25-1.61.74-2.09.49-.49,1.19-.73,2.08-.73h7.45c2.42,0,4.3.62,5.62,1.86,1.32,1.24,1.98,2.96,1.98,5.14s-.66,3.89-1.98,5.14c-1.32,1.24-3.2,1.86-5.62,1.86h-4.7v4.82c0,.89-.23,1.58-.7,2.08-.46.5-1.16.74-2.09.74ZM48.06,14.54h3.73c1.05,0,1.86-.23,2.42-.68.57-.46.85-1.14.85-2.05s-.28-1.62-.85-2.06c-.57-.44-1.37-.67-2.42-.67h-3.73v5.46Z"/>
    <path class="cls-2" d="M72.06,26.51c-2.16,0-4.06-.46-5.7-1.38-1.64-.92-2.9-2.21-3.8-3.86-.9-1.66-1.35-3.59-1.35-5.79,0-1.66.26-3.16.77-4.52.52-1.35,1.25-2.51,2.21-3.48.96-.97,2.11-1.71,3.44-2.23,1.33-.52,2.81-.77,4.42-.77,2.16,0,4.06.45,5.68,1.36,1.63.91,2.89,2.19,3.8,3.83s1.36,3.58,1.36,5.8c0,1.66-.26,3.16-.77,4.52s-1.25,2.52-2.21,3.5-2.11,1.73-3.44,2.24c-1.33.52-2.81.77-4.42.77ZM72.06,21.84c1.07,0,1.98-.25,2.73-.76.75-.5,1.32-1.23,1.73-2.18.4-.95.61-2.09.61-3.42,0-2-.44-3.56-1.33-4.67-.89-1.11-2.13-1.67-3.73-1.67-1.05,0-1.95.25-2.71.74-.76.5-1.34,1.21-1.74,2.15-.4.94-.61,2.09-.61,3.44,0,2,.44,3.56,1.33,4.68.89,1.12,2.13,1.68,3.73,1.68Z"/>
    <path class="cls-2" d="M91.52,26.45c-.75,0-1.35-.18-1.82-.53-.46-.35-.83-.9-1.09-1.65l-5.91-16.46c-.32-.91-.27-1.68.17-2.32.43-.64,1.21-.95,2.32-.95.75,0,1.33.18,1.76.53s.76.9,1,1.65l4.52,13.55h-1.42l4.85-13.55c.28-.75.64-1.3,1.06-1.65s.97-.53,1.64-.53,1.2.18,1.61.53c.4.35.74.91,1,1.68l4.55,13.52h-1.21l4.64-13.55c.24-.75.57-1.3.98-1.65s1-.53,1.74-.53c.93,0,1.61.32,2.05.95.43.64.48,1.41.14,2.32l-5.97,16.49c-.26.73-.62,1.27-1.08,1.62-.45.35-1.06.53-1.8.53s-1.38-.18-1.83-.53c-.45-.35-.81-.9-1.08-1.65l-4.27-12h.76l-4.36,12.03c-.28.73-.65,1.27-1.09,1.62-.44.35-1.05.53-1.82.53Z"/>
    <path class="cls-2" d="M117.88,26.18c-.95,0-1.67-.25-2.17-.74-.5-.5-.74-1.21-.74-2.14V7.69c0-.93.25-1.64.74-2.14.49-.49,1.22-.74,2.17-.74h10.27c.73,0,1.27.18,1.64.55.36.36.55.89.55,1.58s-.18,1.25-.55,1.62c-.36.37-.91.56-1.64.56h-7.85v4.06h7.18c.71,0,1.25.18,1.62.54.37.36.56.9.56,1.61s-.19,1.24-.56,1.61c-.37.36-.91.55-1.62.55h-7.18v4.39h7.85c.73,0,1.27.19,1.64.56.36.37.55.9.55,1.59s-.18,1.24-.55,1.61c-.36.36-.91.55-1.64.55h-10.27Z"/>
    <path class="cls-2" d="M133.94,26.45c-.89,0-1.58-.25-2.06-.74s-.73-1.19-.73-2.08V7.63c0-.91.25-1.61.74-2.09.49-.49,1.19-.73,2.08-.73h7.45c2.42,0,4.3.59,5.62,1.77,1.32,1.18,1.98,2.82,1.98,4.92,0,1.35-.3,2.53-.89,3.53-.6,1-1.45,1.77-2.58,2.3-1.12.54-2.5.8-4.14.8l.24-.55h1.45c.87,0,1.64.21,2.3.62.67.42,1.22,1.05,1.67,1.89l1.52,2.73c.32.59.47,1.16.45,1.71-.02.56-.24,1.01-.65,1.36-.41.35-1.02.53-1.8.53s-1.43-.16-1.92-.48c-.5-.32-.93-.83-1.32-1.52l-2.76-5.06c-.24-.44-.55-.75-.92-.92-.37-.17-.8-.26-1.29-.26h-1.67v5.42c0,.89-.23,1.58-.7,2.08-.46.5-1.16.74-2.09.74ZM136.73,14.27h3.7c1.07,0,1.89-.21,2.45-.64.57-.42.85-1.08.85-1.97s-.28-1.49-.85-1.92c-.57-.43-1.38-.65-2.45-.65h-3.7v5.18Z"/>
    <path class="cls-2" d="M152.91,26.45c-.89,0-1.58-.25-2.06-.74s-.73-1.2-.73-2.11V7.39c0-.93.24-1.64.73-2.12.48-.48,1.17-.73,2.06-.73s1.6.24,2.08.73c.47.49.71,1.19.71,2.12v16.21c0,.91-.23,1.61-.7,2.11-.46.5-1.16.74-2.09.74Z"/>
    <path class="cls-2" d="M159.76,26.45c-.85,0-1.5-.22-1.94-.67-.44-.44-.67-1.1-.67-1.97V7.3c0-.89.22-1.57.67-2.05s1.03-.71,1.76-.71c.65,0,1.15.12,1.52.36s.77.65,1.21,1.21l9.61,12h-.85V7.14c0-.85.22-1.49.65-1.94.43-.44,1.08-.67,1.92-.67s1.49.22,1.92.67c.43.45.65,1.09.65,1.94v16.79c0,.77-.2,1.38-.61,1.83-.4.46-.95.68-1.64.68s-1.23-.13-1.62-.38c-.39-.25-.81-.65-1.26-1.2l-9.61-12.03h.85v10.97c0,.87-.22,1.53-.65,1.97-.43.44-1.08.67-1.92.67Z"/>
    <path class="cls-2" d="M188.61,26.51c-2.44,0-4.52-.45-6.23-1.36-1.71-.91-3.01-2.18-3.89-3.82-.89-1.64-1.33-3.55-1.33-5.73,0-1.7.27-3.23.8-4.59.53-1.36,1.31-2.54,2.32-3.52,1.01-.98,2.25-1.73,3.71-2.24,1.46-.52,3.13-.77,4.98-.77,1.01,0,2.04.1,3.09.29,1.05.19,2.08.55,3.09,1.08.52.24.88.58,1.08,1.02.19.43.25.89.18,1.36-.07.47-.24.91-.52,1.3-.27.39-.64.66-1.11.79-.46.13-.99.07-1.58-.2-.61-.28-1.26-.5-1.97-.65-.71-.15-1.45-.23-2.24-.23-1.35,0-2.48.24-3.38.73-.9.49-1.57,1.2-2.02,2.15-.44.95-.67,2.11-.67,3.48,0,2.06.5,3.62,1.52,4.67,1.01,1.05,2.5,1.58,4.48,1.58.61,0,1.27-.06,1.98-.18.72-.12,1.44-.29,2.17-.51l-1.03,2.09v-5.18h-2.12c-.69,0-1.22-.17-1.59-.52-.37-.34-.56-.83-.56-1.45s.19-1.11.56-1.44c.37-.33.9-.5,1.59-.5h4.48c.71,0,1.25.19,1.62.56.37.37.56.91.56,1.62v6.7c0,.61-.13,1.12-.38,1.54-.25.42-.65.73-1.2.91-.95.32-1.98.58-3.09.76-1.11.18-2.22.27-3.33.27Z"/>
  </g>
  <g>
    <path class="cls-3" d="M208.81,4.13v22.05h-3.37V4.13h3.37ZM212.6,26.18h-5.45v-2.93h5.27c1.68,0,3.07-.32,4.18-.95,1.11-.63,1.94-1.55,2.49-2.77.55-1.21.82-2.68.82-4.41s-.27-3.19-.82-4.39c-.55-1.2-1.36-2.11-2.44-2.74-1.08-.63-2.42-.94-4.03-.94h-5.56v-2.93h5.77c2.17,0,4.03.44,5.58,1.32s2.74,2.14,3.57,3.79c.83,1.65,1.25,3.61,1.25,5.89s-.42,4.26-1.26,5.91-2.05,2.92-3.62,3.81c-1.58.89-3.49,1.33-5.74,1.33Z"/>
    <path class="cls-3" d="M230.96,4.13v22.05h-3.37V4.13h3.37Z"/>
    <path class="cls-3" d="M243.57,26.53c-1.67,0-3.11-.27-4.34-.81-1.23-.54-2.19-1.31-2.87-2.32-.69-1.01-1.06-2.2-1.12-3.58h3.36c.06.83.31,1.52.75,2.09.44.56,1.03.99,1.76,1.27.73.29,1.54.43,2.44.43.95,0,1.79-.15,2.52-.44.73-.3,1.31-.71,1.73-1.24.42-.53.63-1.15.63-1.86,0-.63-.18-1.15-.53-1.56s-.84-.75-1.46-1.04-1.36-.53-2.2-.75l-2.56-.67c-1.89-.5-3.35-1.23-4.36-2.17-1.01-.95-1.52-2.18-1.52-3.7,0-1.27.34-2.39,1.01-3.34.68-.96,1.6-1.7,2.78-2.23,1.18-.53,2.52-.79,4.02-.79s2.87.27,4.02.81c1.15.54,2.06,1.28,2.71,2.22.65.94,1,2.03,1.04,3.26h-3.27c-.1-1.07-.56-1.89-1.39-2.49-.83-.59-1.88-.89-3.17-.89-.89,0-1.66.14-2.32.42-.66.28-1.17.67-1.54,1.16-.37.49-.55,1.06-.55,1.69s.2,1.2.59,1.63c.39.42.9.76,1.52,1.02.62.26,1.26.47,1.92.65l2.19.56c.79.2,1.56.45,2.32.77.76.32,1.44.72,2.06,1.2s1.1,1.07,1.46,1.76c.36.69.54,1.51.54,2.46,0,1.26-.32,2.38-.97,3.36s-1.58,1.74-2.8,2.29c-1.22.55-2.69.83-4.41.83Z"/>
    <path class="cls-3" d="M254.18,26.18l7.89-22.05h4.1l7.98,22.05h-3.62l-4.29-12.3c-.34-1.02-.7-2.19-1.1-3.51-.4-1.33-.87-2.93-1.4-4.82h.74c-.52,1.89-.98,3.51-1.38,4.85s-.75,2.5-1.08,3.48l-4.2,12.3h-3.63ZM258.48,20.39v-2.81h11.36v2.81h-11.36Z"/>
    <path class="cls-3" d="M280.97,4.13v22.05h-3.37V4.13h3.37ZM284.76,26.18h-5.45v-2.93h5.27c1.68,0,3.07-.32,4.18-.95,1.11-.63,1.94-1.55,2.49-2.77.55-1.21.82-2.68.82-4.41s-.27-3.19-.82-4.39c-.55-1.2-1.36-2.11-2.44-2.74-1.08-.63-2.42-.94-4.03-.94h-5.56v-2.93h5.77c2.17,0,4.03.44,5.58,1.32s2.74,2.14,3.57,3.79c.83,1.65,1.25,3.61,1.25,5.89s-.42,4.26-1.26,5.91-2.05,2.92-3.62,3.81c-1.58.89-3.49,1.33-5.74,1.33Z"/>
    <path class="cls-3" d="M304.94,26.18l-7.99-22.05h3.63l4.31,12.3c.32.95.68,2.1,1.09,3.46s.88,2.97,1.41,4.82h-.74c.52-1.88.99-3.5,1.39-4.85.4-1.35.76-2.49,1.07-3.44l4.19-12.3h3.61l-7.87,22.05h-4.08Z"/>
    <path class="cls-3" d="M316.26,26.18l7.89-22.05h4.1l7.98,22.05h-3.62l-4.29-12.3c-.34-1.02-.7-2.19-1.1-3.51-.4-1.33-.87-2.93-1.4-4.82h.74c-.52,1.89-.98,3.51-1.38,4.85s-.75,2.5-1.08,3.48l-4.2,12.3h-3.63ZM320.57,20.39v-2.81h11.36v2.81h-11.36Z"/>
    <path class="cls-3" d="M339.69,26.18V4.13h3.85l8.32,13.17c.27.4.57.9.9,1.49s.69,1.24,1.07,1.97c.38.72.75,1.5,1.12,2.32l-.4.16c-.07-.78-.13-1.57-.17-2.38-.04-.81-.07-1.57-.09-2.28s-.02-1.3-.02-1.76V4.13h3.39v22.05h-3.86l-7.46-11.78c-.35-.58-.72-1.19-1.1-1.83-.38-.64-.8-1.39-1.27-2.23-.47-.85-1.02-1.86-1.66-3.03l.52-.15c.06,1.09.11,2.11.15,3.05s.07,1.76.1,2.48c.02.71.04,1.29.04,1.71v11.79h-3.4Z"/>
    <path class="cls-3" d="M361.66,7.03v-2.9h17.15v2.9h-6.88v19.15h-3.36V7.03h-6.91Z"/>
    <path class="cls-3" d="M378.44,26.18l7.89-22.05h4.1l7.98,22.05h-3.63l-4.29-12.3c-.33-1.02-.7-2.19-1.1-3.51-.4-1.33-.87-2.93-1.4-4.82h.74c-.52,1.89-.98,3.51-1.38,4.85s-.75,2.5-1.08,3.48l-4.2,12.3h-3.62ZM382.75,20.39v-2.81h11.36v2.81h-11.36Z"/>
    <path class="cls-3" d="M410.08,26.49c-2,0-3.76-.46-5.27-1.39-1.51-.93-2.69-2.24-3.54-3.94-.85-1.7-1.27-3.69-1.27-5.99s.43-4.34,1.29-6.04c.86-1.7,2.04-3.01,3.54-3.93,1.5-.92,3.21-1.38,5.12-1.38,1.19,0,2.31.18,3.34.53,1.04.36,1.96.86,2.77,1.51.81.65,1.49,1.43,2.02,2.32.53.9.89,1.89,1.08,2.97h-3.45c-.19-.65-.45-1.24-.8-1.77-.34-.53-.76-.98-1.25-1.35s-1.04-.66-1.66-.86-1.29-.3-2.02-.3c-1.27,0-2.41.32-3.42.97-1.01.65-1.8,1.59-2.38,2.82s-.87,2.73-.87,4.48.29,3.24.87,4.47,1.37,2.17,2.39,2.83c1.02.65,2.18.98,3.51.98,1.17,0,2.21-.24,3.11-.73.9-.48,1.59-1.17,2.09-2.06.5-.89.75-1.93.75-3.12l.89.13h-6.3v-2.77h8.7v2.53c0,1.83-.4,3.43-1.2,4.79s-1.89,2.41-3.28,3.16c-1.39.75-2.98,1.12-4.76,1.12Z"/>
    <path class="cls-3" d="M423.79,26.18V4.13h14.1v2.9h-10.73v6.56h9.96v2.87h-9.96v6.82h10.8v2.9h-14.18Z"/>
    <path class="cls-3" d="M445.83,4.13v22.05h-3.37V4.13h3.37ZM449.61,26.18h-5.45v-2.93h5.27c1.68,0,3.07-.32,4.18-.95,1.11-.63,1.94-1.55,2.49-2.77.55-1.21.82-2.68.82-4.41s-.27-3.19-.82-4.39c-.55-1.2-1.36-2.11-2.44-2.74-1.08-.63-2.42-.94-4.03-.94h-5.56v-2.93h5.77c2.17,0,4.03.44,5.58,1.32s2.74,2.14,3.57,3.79c.83,1.65,1.25,3.61,1.25,5.89s-.42,4.26-1.26,5.91c-.84,1.65-2.05,2.92-3.62,3.81-1.58.89-3.49,1.33-5.74,1.33Z"/>
    <path class="cls-1" d="M473.93,26.18v-8.79l-8.14-13.26h3.91l4.16,7.01c.44.75.85,1.47,1.21,2.17s.73,1.53,1.1,2.5h-1.08c.38-.98.74-1.82,1.1-2.53.36-.71.75-1.43,1.18-2.15l4.11-7.01h3.88l-8.08,13.26v8.79h-3.34Z"/>
    <path class="cls-1" d="M496.8,26.49c-1.92,0-3.64-.46-5.14-1.38-1.5-.92-2.69-2.22-3.56-3.91-.87-1.69-1.3-3.7-1.3-6.03s.43-4.36,1.3-6.05,2.05-3,3.56-3.92c1.5-.92,3.22-1.38,5.14-1.38s3.62.46,5.13,1.38c1.5.92,2.69,2.22,3.55,3.92s1.29,3.71,1.29,6.05-.43,4.34-1.29,6.03c-.86,1.69-2.05,3-3.55,3.91-1.5.92-3.21,1.38-5.13,1.38ZM496.8,23.42c1.25,0,2.38-.32,3.38-.95,1-.63,1.79-1.56,2.38-2.8.58-1.23.87-2.74.87-4.51s-.29-3.31-.87-4.54c-.58-1.23-1.37-2.17-2.38-2.8-1-.63-2.13-.95-3.38-.95s-2.4.32-3.4.95c-1.01.64-1.8,1.57-2.39,2.8-.59,1.23-.88,2.74-.88,4.53s.29,3.28.88,4.51c.59,1.23,1.38,2.16,2.39,2.8,1.01.64,2.14.96,3.4.96Z"/>
    <path class="cls-1" d="M519.91,26.52c-1.77,0-3.31-.34-4.62-1.01-1.32-.68-2.34-1.61-3.06-2.8-.73-1.19-1.09-2.56-1.09-4.1V4.13h3.36v14.2c0,1,.22,1.88.66,2.65.44.77,1.06,1.38,1.87,1.82.81.44,1.77.67,2.89.67s2.08-.22,2.89-.67c.81-.44,1.43-1.05,1.86-1.82.43-.77.65-1.65.65-2.65V4.13h3.36v14.47c0,1.54-.36,2.91-1.09,4.1-.72,1.19-1.74,2.13-3.06,2.8-1.31.67-2.85,1.01-4.62,1.01Z"/>
    <path class="cls-1" d="M533.81,26.18V4.13h3.85l8.32,13.17c.27.4.57.9.9,1.49s.69,1.24,1.07,1.97c.38.72.75,1.5,1.12,2.32l-.4.16c-.07-.78-.13-1.57-.17-2.38-.04-.81-.07-1.57-.09-2.28-.01-.71-.02-1.3-.02-1.76V4.13h3.39v22.05h-3.86l-7.46-11.78c-.35-.58-.72-1.19-1.1-1.83-.38-.64-.8-1.39-1.27-2.23-.47-.85-1.02-1.86-1.66-3.03l.52-.15c.06,1.09.11,2.11.15,3.05.04.94.07,1.76.1,2.48s.04,1.29.04,1.71v11.79h-3.4Z"/>
    <path class="cls-1" d="M566.23,26.49c-2,0-3.76-.46-5.27-1.39-1.51-.93-2.69-2.24-3.54-3.94-.85-1.7-1.27-3.69-1.27-5.99s.43-4.34,1.29-6.04c.86-1.7,2.04-3.01,3.54-3.93,1.5-.92,3.21-1.38,5.12-1.38,1.19,0,2.31.18,3.34.53,1.04.36,1.96.86,2.77,1.51.81.65,1.49,1.43,2.02,2.32.53.9.89,1.89,1.08,2.97h-3.45c-.19-.65-.45-1.24-.8-1.77-.34-.53-.76-.98-1.25-1.35s-1.04-.66-1.66-.86-1.29-.3-2.02-.3c-1.27,0-2.41.32-3.42.97-1.01.65-1.8,1.59-2.38,2.82s-.87,2.73-.87,4.48.29,3.24.87,4.47,1.37,2.17,2.39,2.83c1.02.65,2.18.98,3.51.98,1.17,0,2.21-.24,3.11-.73.9-.48,1.59-1.17,2.09-2.06.5-.89.75-1.93.75-3.12l.89.13h-6.3v-2.77h8.7v2.53c0,1.83-.4,3.43-1.2,4.79s-1.89,2.41-3.28,3.16c-1.39.75-2.98,1.12-4.76,1.12Z"/>
    <path class="cls-1" d="M586.13,26.18l7.89-22.05h4.1l7.98,22.05h-3.63l-4.29-12.3c-.33-1.02-.7-2.19-1.1-3.51-.4-1.33-.87-2.93-1.4-4.82h.74c-.52,1.89-.98,3.51-1.38,4.85s-.75,2.5-1.08,3.48l-4.2,12.3h-3.62ZM590.44,20.39v-2.81h11.36v2.81h-11.36Z"/>
    <path class="cls-1" d="M612.93,4.13v22.05h-3.37V4.13h3.37ZM616.72,26.18h-5.45v-2.93h5.27c1.68,0,3.07-.32,4.18-.95,1.11-.63,1.94-1.55,2.49-2.77.55-1.21.82-2.68.82-4.41s-.27-3.19-.82-4.39c-.55-1.2-1.36-2.11-2.44-2.74-1.08-.63-2.42-.94-4.03-.94h-5.56v-2.93h5.77c2.17,0,4.03.44,5.58,1.32s2.74,2.14,3.57,3.79c.83,1.65,1.25,3.61,1.25,5.89s-.42,4.26-1.26,5.91c-.84,1.65-2.05,2.92-3.62,3.81-1.58.89-3.49,1.33-5.74,1.33Z"/>
    <path class="cls-1" d="M640.46,26.52c-1.77,0-3.31-.34-4.62-1.01-1.32-.68-2.34-1.61-3.06-2.8-.73-1.19-1.09-2.56-1.09-4.1V4.13h3.36v14.2c0,1,.22,1.88.66,2.65.44.77,1.06,1.38,1.87,1.82.81.44,1.77.67,2.89.67s2.08-.22,2.89-.67c.81-.44,1.43-1.05,1.86-1.82.43-.77.65-1.65.65-2.65V4.13h3.36v14.47c0,1.54-.36,2.91-1.09,4.1-.72,1.19-1.74,2.13-3.06,2.8-1.31.67-2.85,1.01-4.62,1.01Z"/>
    <path class="cls-1" d="M654.36,26.18V4.13h3.37v19.15h10.06v2.9h-13.44Z"/>
    <path class="cls-1" d="M667.81,7.03v-2.9h17.15v2.9h-6.88v19.15h-3.36V7.03h-6.91Z"/>
    <path class="cls-1" d="M696.38,26.53c-1.67,0-3.12-.27-4.34-.81-1.23-.54-2.18-1.31-2.87-2.32-.69-1.01-1.06-2.2-1.12-3.58h3.36c.06.83.31,1.52.75,2.09.44.56,1.03.99,1.76,1.27.73.29,1.54.43,2.44.43.95,0,1.79-.15,2.52-.44.73-.3,1.31-.71,1.73-1.24.42-.53.63-1.15.63-1.86,0-.63-.18-1.15-.53-1.56-.35-.41-.84-.75-1.46-1.04-.63-.28-1.36-.53-2.2-.75l-2.56-.67c-1.89-.5-3.35-1.23-4.36-2.17-1.01-.95-1.52-2.18-1.52-3.7,0-1.27.34-2.39,1.01-3.34.68-.96,1.6-1.7,2.78-2.23,1.18-.53,2.52-.79,4.02-.79s2.87.27,4.03.81c1.15.54,2.06,1.28,2.71,2.22.65.94,1,2.03,1.04,3.26h-3.27c-.1-1.07-.56-1.89-1.39-2.49-.83-.59-1.88-.89-3.17-.89-.89,0-1.66.14-2.32.42-.66.28-1.17.67-1.54,1.16s-.55,1.06-.55,1.69.2,1.2.59,1.63c.39.42.9.76,1.52,1.02.62.26,1.26.47,1.92.65l2.19.56c.79.2,1.56.45,2.32.77.76.32,1.45.72,2.06,1.2s1.1,1.07,1.46,1.76c.36.69.54,1.51.54,2.46,0,1.26-.32,2.38-.97,3.36s-1.58,1.74-2.8,2.29c-1.22.55-2.69.83-4.41.83Z"/>
  </g>
</svg>