<?xml version="1.0" encoding="UTF-8"?>
<svg id="Layer_8" data-name="Layer 8" xmlns="http://www.w3.org/2000/svg" viewBox="0 0 9.43 9.43">
  <defs>
    <style>
      .cls-1 {
        fill: #fff;
      }

      .cls-2 {
        fill: #0080ff;
      }
    </style>
  </defs>
  <path class="cls-2" d="M9.43,4.71C9.43,2.11,7.32,0,4.71,0S0,2.11,0,4.71c0,2.35,1.72,4.3,3.98,4.66v-3.29h-1.2v-1.36h1.2v-1.04c0-1.18.7-1.83,1.78-1.83.52,0,1.05.09,1.05.09v1.16h-.59c-.59,0-.77.36-.77.74v.88h1.31l-.21,1.36h-1.1v3.29c2.25-.35,3.98-2.3,3.98-4.66Z"/>
  <path class="cls-1" d="M6.55,6.07l.21-1.36h-1.31v-.88c0-.37.18-.74.77-.74h.59v-1.16s-.54-.09-1.05-.09c-1.08,0-1.78.65-1.78,1.83v1.04h-1.2v1.36h1.2v3.29c.24.04.49.06.74.06s.5-.02.74-.06v-3.29h1.1Z"/>
</svg>