<?xml version="1.0" encoding="UTF-8"?>
<svg id="Layer_8" data-name="Layer 8" xmlns="http://www.w3.org/2000/svg" viewBox="0 0 9.7 9.7">
  <defs>
    <style>
      .cls-1 {
        fill: #fff;
      }

      .cls-2 {
        fill: #1d75bb;
      }
    </style>
  </defs>
  <circle class="cls-2" cx="4.85" cy="4.85" r="4.85"/>
  <g>
    <path class="cls-1" d="M5.33,6.98s-.04,0-.06,0c-.3,0-.59,0-.89,0-.05,0-.06-.02-.06-.07,0-1.15,0-2.29,0-3.44,0-.05.02-.06.06-.06.3,0,.59,0,.89,0,.05,0,.07.01.06.06,0,.1,0,.21,0,.31.11-.08.21-.16.32-.23.19-.12.4-.18.62-.19.56-.03,1.04.27,1.25.73.1.21.15.43.15.67,0,.64,0,1.28,0,1.93,0,.09,0,.18,0,.28h-1.01s0-.05,0-.07c0-.66,0-1.31,0-1.97,0-.18-.03-.36-.13-.52-.09-.17-.25-.24-.43-.25-.4-.01-.71.25-.76.65-.01.09-.02.19-.02.29,0,.6,0,1.2,0,1.81,0,.02,0,.04,0,.07Z"/>
    <path class="cls-1" d="M3.4,6.98s-.04,0-.06,0c-.3,0-.59,0-.89,0-.05,0-.06-.02-.06-.07,0-1.14,0-2.29,0-3.43,0-.05.02-.06.06-.06.29,0,.58,0,.87,0,.08,0,.09,0,.09.08,0,.89,0,1.79,0,2.68,0,.24,0,.48,0,.72v.06Z"/>
    <path class="cls-1" d="M2.9,1.99c.3-.02.59.24.59.58,0,.32-.26.58-.59.58-.31,0-.59-.25-.59-.58,0-.39.32-.61.6-.59Z"/>
  </g>
</svg>