<?xml version="1.0" encoding="UTF-8"?>
<svg id="Layer_8" data-name="Layer 8" xmlns="http://www.w3.org/2000/svg" viewBox="0 0 9.43 9.43">
  <defs>
    <style>
      .cls-1 {
        fill: #fff;
      }

      .cls-2 {
        fill: #0cf;
      }
    </style>
  </defs>
  <circle class="cls-2" cx="4.71" cy="4.71" r="4.71"/>
  <path class="cls-1" d="M7.32,3.1c-.16.07-.34.12-.52.15.08-.01.21-.17.26-.23.08-.09.14-.2.17-.31,0,0,0-.02,0-.03-.01,0-.02,0-.03,0-.2.11-.4.18-.62.24-.02,0-.03,0-.04-.01-.02-.02-.03-.04-.05-.06-.09-.08-.19-.14-.3-.18-.14-.06-.3-.08-.46-.07-.15,0-.3.05-.43.12-.13.07-.25.17-.35.29-.1.12-.17.27-.21.42-.04.15-.03.29-.01.44,0,.02,0,.03-.02.02-.85-.13-1.55-.43-2.12-1.08-.02-.03-.04-.03-.06,0-.25.37-.13.97.18,1.27.04.04.08.08.13.11-.02,0-.22-.02-.41-.11-.02-.02-.04,0-.04.02,0,.04,0,.08,0,.12.05.38.31.73.67.87.04.02.09.03.14.04-.08.02-.17.03-.4.01-.03,0-.04,0-.03.04.18.48.56.62.84.71.04,0,.08,0,.11.02,0,0,0,0,0,0-.09.14-.42.25-.58.3-.28.1-.58.14-.87.11-.05,0-.06,0-.07,0-.01,0,0,.02.01.03.06.04.12.07.18.11.19.1.38.18.58.23,1.05.29,2.23.08,3.02-.71.62-.61.84-1.46.84-2.31,0-.03.04-.05.06-.07.16-.12.29-.27.41-.43.03-.04.03-.07.03-.08h0s0-.01-.02,0Z"/>
</svg>